<svg id="Capa_1" data-name="Capa 1" xmlns="http://www.w3.org/2000/svg" viewBox="0 0 249.99 249.99"><defs><style>.cls-1{fill:#e6e7e8;}.cls-2{fill:#a7a9ac;}</style></defs><title>login</title><path class="cls-1" d="M250,125.39A125,125,0,1,1,125,.39,125,125,0,0,1,250,125.39Z" transform="translate(-0.01 -0.39)"/><path class="cls-2" d="M202.36,178.37c-.18-22.5-13.07-43.62-34-56.19a47.35,47.35,0,1,0-86.79,0c-20.89,12.57-33.78,33.69-34,56.19l0,4.55,4.53.57A590.73,590.73,0,0,0,125,187.93a591.06,591.06,0,0,0,72.87-4.44l4.52-.57ZM125,66.21a37.08,37.08,0,0,1,32.68,54.66l-.24.41c-.12.24-.29.46-.42.7a38.22,38.22,0,0,1-2.34,3.51l-.42.56a37,37,0,0,1-6.53,6.53l-.38.29a38.93,38.93,0,0,1-3.6,2.41l-.26.16A37.19,37.19,0,0,1,135,139l-.78.2a36.43,36.43,0,0,1-3.63.73l-1.06.17a34.13,34.13,0,0,1-9,0l-1.07-.17a36.81,36.81,0,0,1-3.62-.73L115,139a37.38,37.38,0,0,1-8.5-3.58l-.26-.16a37.63,37.63,0,0,1-3.6-2.41l-.39-.29a37.31,37.31,0,0,1-6.52-6.53c-.15-.18-.29-.37-.43-.56A40.29,40.29,0,0,1,93,122c-.13-.24-.3-.46-.43-.7l-.23-.41a36.75,36.75,0,0,1-4.43-17.56A37.14,37.14,0,0,1,125,66.21ZM58.13,173.89c1.66-17.33,12-32.87,28.56-42.82.14.2.32.37.47.58q1.26,1.66,2.64,3.21c.28.31.55.62.83.91Q92.24,137.47,94,139l.4.37a48,48,0,0,0,9,6c.15.08.3.14.44.22,1.41.7,2.85,1.34,4.34,1.91l.94.35c1.34.48,2.69.89,4.07,1.25.39.11.79.22,1.2.31,1.34.31,2.7.55,4.07.75.43,0,.84.14,1.26.19a44.8,44.8,0,0,0,10.69,0c.42-.05.83-.14,1.26-.19,1.37-.2,2.73-.44,4.07-.75.4-.09.8-.2,1.2-.31,1.38-.36,2.73-.77,4.07-1.25l.94-.35q2.22-.86,4.35-1.91c.13-.08.28-.14.42-.22a47.72,47.72,0,0,0,9-6l.4-.37q1.74-1.51,3.34-3.21c.28-.29.54-.6.82-.91.93-1,1.81-2.1,2.65-3.22.15-.2.33-.37.47-.57,16.54,10,26.9,25.49,28.56,42.82A592.29,592.29,0,0,1,58.13,173.89Z" transform="translate(-0.01 -0.39)"/></svg>