<svg id="Capa_1" data-name="Capa 1" xmlns="http://www.w3.org/2000/svg" viewBox="0 0 320.67 74.51"><defs><style>.cls-1{fill:#244b9a;}.cls-2{fill:#fff;}</style></defs><title>logoBlanco</title><path class="cls-1" d="M474.53,624.33c4.49-.22,8.91-.71,12.7-3.49a10.06,10.06,0,0,1,1.89-1.23c1.9-.8,3.21.26,4.39,1.4a3.7,3.7,0,0,1,1.2,3.9,4.56,4.56,0,0,1-2,2.27,28.66,28.66,0,0,1-8.22,3.82,32.32,32.32,0,0,1-10.12,1.66,15.63,15.63,0,0,1-2.81-.34c-1.52-.32-1.63-.63-1.1-3-2,2.68-3.5,5.4-5.88,8-.41-2.71,1.15-4.56,1.63-6.66a8.56,8.56,0,0,0,1.44-3.46L466,630.44c-2.16.75-3.93-.49-5.76-1.23a30.19,30.19,0,0,1-11.69-8.29,35.16,35.16,0,0,1-5.43-39,34.05,34.05,0,0,1,13.28-14.35A34.92,34.92,0,0,1,470,563.11a34.21,34.21,0,0,1,25,6.59c1.56,1.12,1.66,2,.85,3.78a10.94,10.94,0,0,1-2.7,3.44,3.07,3.07,0,0,1-3.68.18,22.85,22.85,0,0,0-10.9-4.93,25.24,25.24,0,0,0-19.55,4.57,57.07,57.07,0,0,0-5.37,5.06,21,21,0,0,1,7.64,2.73c.09-.15.18-.24.17-.31,0-.48-.95-.84-.4-1.32a1.66,1.66,0,0,1,1.63,0,91.33,91.33,0,0,1,18.57,10.79c1,.73,2,1.46,3,2.1a1.14,1.14,0,0,0,1.79-.4c1-1.58,1.19-3.42,1.69-5.16.76-2.66,1.74-5.09,4.92-5.66a2.89,2.89,0,0,1,1.27-.05,22.16,22.16,0,0,0,10.49.18,32.25,32.25,0,0,1,7.05-.49,6.35,6.35,0,0,1-3.82,1.39,11.19,11.19,0,0,0-7.22,3.44,61,61,0,0,0-4,5.58A16.9,16.9,0,0,0,493.21,605c0,4.07-2.34,7.07-5.39,9.52-3.74,3-8,5.2-11.86,8.08a16.37,16.37,0,0,0-1.66,1.56l-.28.39A.31.31,0,0,0,474.53,624.33Zm1.7-18.72a14.37,14.37,0,0,1-7.27-4.05,91.88,91.88,0,0,1-13.88-16.16c-2-3-2-3-3.66.24A25.43,25.43,0,0,0,467.3,622c1,.27,1.92.72,2.13,1.8C472.32,618.06,471.71,611,476.23,605.61Z" transform="translate(-439.5 -562.82)"/><path class="cls-2" d="M684.41,592c1.51-.51,2.82-1.46,4.43-1.77a12.84,12.84,0,0,1,10.57,2.41c2.25,1.7,2.19,1.72,4.46.1,4.45-3.17,9.24-3.82,14.11-1.26a11.1,11.1,0,0,1,6.34,10.19c.07,4.61,0,9.23,0,13.84,0,1.53.47,3,.32,4.56-.08.81,0,1.92-.79,2.1a5.43,5.43,0,0,1-3.64-.13c-.42-.2-.48-.65-.5-1.11-.16-3.16-.34-6.3-.29-9.46s0-6.06,0-9.09a7.65,7.65,0,0,0-7.67-7.27c-3.92.16-7.2,3.74-7.07,7.23a79.54,79.54,0,0,1-.22,8.45c-.23,3.1.39,6.2.26,9.32-.08,1.82-.41,2.29-2.24,2.22-3-.1-3.31-.27-3.25-3.38,0-2.48.16-5,.17-7.44a48.37,48.37,0,0,0-.82-11.2,7.4,7.4,0,0,0-6.07-5.19c-4.49-.47-7.32,2.51-8,6.41a30.91,30.91,0,0,0-.24,5.43q-.06,6.76,0,13.55c0,1.3-.33,1.87-1.78,1.83-3.69-.09-3.72-.06-3.72-3.79V591.71c0-2,0-2,2-2h.86C684,589.69,684,589.69,684.41,592Z" transform="translate(-439.5 -562.82)"/><path class="cls-2" d="M620,593.37c1.64-.89,2.92-2.17,4.64-2.79,6.37-2.27,12.2-1.52,17.55,2.78,6.72,5.41,7.61,16.43,2.17,23.08a16.37,16.37,0,0,1-11.64,6.16,16,16,0,0,1-12-3.7c-.21-.17-.37-.47-.72-.26s-.11.47-.11.73c0,5,0,10.09,0,15.14,0,.79-.26,1.2-1.18,1.41-1.13.26-2.13-.23-3.2-.16-.48,0-.68-.64-.88-1.16a4.47,4.47,0,0,1-.21-1.68q0-20.53,0-41.08c0-2.49.56-2.59,2.41-2.44a4.93,4.93,0,0,0,.86,0c1.19-.12,1.81.27,2,1.58A13.49,13.49,0,0,0,620,593.37Zm11.3,1.22c-6.25-.22-11.1,5.21-11.44,10.47a11.42,11.42,0,0,0,11.48,12.5,11.55,11.55,0,0,0,11.34-11.49C642.84,600.06,637.39,594.33,631.32,594.59Z" transform="translate(-439.5 -562.82)"/><path class="cls-2" d="M593.65,618.48c-3.9,3.15-8.13,4.81-13,4.34a16.16,16.16,0,0,1-10.52-4.91c-6.07-6.45-6.15-14.81-1.53-21.69,2.8-4.16,7-6.25,11.91-6.79s9.19,1.1,13.12,4.46V578.17c0-1.92.12-2,2.05-2h1.44c1.19,0,1.72.59,1.71,1.76,0,2.35,0,4.7,0,7.06v36.17c0,1.75-.15,1.9-1.9,1.73a12.8,12.8,0,0,0-2.39-.29c-.69.06-.92-.35-.91-1C593.67,620.62,593.65,619.68,593.65,618.48Zm0-12.68a11.47,11.47,0,0,0-22.93,0c-.07,6.67,4.69,11.8,11.25,11.76C589,617.54,593.33,612.87,593.65,605.8Z" transform="translate(-439.5 -562.82)"/><path class="cls-2" d="M547.91,607.86c-3.79,0-7.59,0-11.38,0-1,0-1.26.16-1,1.3a11.91,11.91,0,0,0,10.61,8.47,11,11,0,0,0,9.66-4.77c1.15-1.51,2.2-1.65,4.1-.37,1.16.79,1.28,1.84.35,3.25a15.74,15.74,0,0,1-11,6.87A15.93,15.93,0,0,1,537,619.73a15.73,15.73,0,0,1-7.13-13.27c-.08-7.21,3.41-12.41,9.65-15.46s12.07-2.14,17.55,2.06c4.31,3.3,5.86,7.91,6.47,13,.1.79-.41,1.43-1.44,1.55a79.66,79.66,0,0,1-8.74.26Zm-1.28-5.19c3.22,0,6.43,0,9.65,0,1.05,0,1.21-.31.83-1.26a9.4,9.4,0,0,0-2.51-3.56c-2.76-2.4-5.91-3.69-9.72-3a11,11,0,0,0-8.72,6.58c-.43,1-.21,1.26.83,1.25C540.21,602.65,543.42,602.67,546.63,602.67Z" transform="translate(-439.5 -562.82)"/><path class="cls-2" d="M726.9,605.4c-.3-6.54,5.2-13.82,12.17-15.53,5.26-1.28,10.34-.66,14.76,2.91A16.16,16.16,0,0,1,760.14,607c0,1-.56,1.09-1.17.85a6.36,6.36,0,0,0-2.4-.23H733.79c-1.32,0-1.69.44-1.26,1.66a11.45,11.45,0,0,0,8,7.79,11,11,0,0,0,11.13-2.88,10.37,10.37,0,0,0,.78-1,3.14,3.14,0,0,1,3.29-1.3c2.22.45,2.66,2.47,1.41,4.09a16.33,16.33,0,0,1-12,6.67A15.64,15.64,0,0,1,734.45,620,16.24,16.24,0,0,1,726.9,605.4Zm16.74-2.73h9.23c1.61,0,1.75-.26,1-1.75a11.28,11.28,0,0,0-4.28-4.6A11.43,11.43,0,0,0,733.28,601c-.65,1.25-.32,1.7,1.13,1.71Z" transform="translate(-439.5 -562.82)"/><path class="cls-2" d="M676.45,605.61c0,4.52.18,9-.06,13.56-.22,4.07-.58,8.14-2.47,12-2.08,4.19-6.53,6.1-11.27,5.37a14.74,14.74,0,0,1-7.21-2.92c-1-.79-1.05-1.44-.25-2.29.33-.36.68-.69,1-1,1.38-1.36,1.65-1.27,3.2-.1,3.4,2.58,7.5,2.07,10.39-1.75,1.49-2,1.46-4.33,1.71-6.6.12-1.1-.68-1.43-1.66-.87-7.32,4.14-16.85-.07-18.18-8.46a78,78,0,0,1-.52-16c.09-1.67-.1-3.29-.09-4.94,0-1.25.44-1.89,1.86-1.86,3.33.07,3.33,0,3.33,3.35q0,8.29,0,16.59a7.55,7.55,0,0,0,7.94,7.76A7.36,7.36,0,0,0,671,611c.5-6.47.12-13,.21-19.42,0-1.41.3-1.94,1.82-1.89,3.41.11,3.41,0,3.41,3.41Z" transform="translate(-439.5 -562.82)"/><path class="cls-2" d="M519.6,592.16c1.65-.54,3-1.73,4.79-2,1-.18,2.07-.49,2.88.53a3.45,3.45,0,0,1,.36,3.5,1.5,1.5,0,0,1-1.22,1c-4.33,1-7.1,4.17-6.94,8.82.19,5.61,0,11.23,0,16.85,0,1.86-.13,2-1.94,2-3.34,0-3.54-.18-3.54-3.54s-.14-6.83,0-10.23c.29-5.45.25-10.91.26-16.37,0-2,.64-2.93,2.18-3C518.74,589.53,519.2,589.9,519.6,592.16Z" transform="translate(-439.5 -562.82)"/><path class="cls-2" d="M604.33,606.12v-14.7c0-2,0-2,2-2,3,0,3.23.27,3.23,3.23v28c0,2.09-.19,2.29-2.29,2.27-3.35,0-2.88.45-2.9-2.9C604.31,615.35,604.33,610.74,604.33,606.12Z" transform="translate(-439.5 -562.82)"/><path class="cls-1" d="M660,582.52v3.81c0,2,0,2-2.14,1.92-.52,0-1.05.13-1-.74,0-5.28,0-10.56,0-15.84,0-.55.23-.92.73-.71.81.34,2.15-.94,2.51.84.06.3.55,0,.78-.14a5.65,5.65,0,0,1,7.54.88,7.23,7.23,0,0,1,1.17,7.51,6.16,6.16,0,0,1-6.09,3.88C662.17,583.89,661.22,583.07,660,582.52Zm6.93-5.19a3.58,3.58,0,0,0-3.36-3.8A3.48,3.48,0,0,0,660,577.2a3.48,3.48,0,1,0,6.93.13Z" transform="translate(-439.5 -562.82)"/><path class="cls-1" d="M631.09,569.32a1.76,1.76,0,0,1-.14.23,8.21,8.21,0,0,1-1.86,1.78c-.88.43-1.25-.74-1.9-1.12a5.9,5.9,0,0,0-8.43,8,6.05,6.05,0,0,0,6.21,2.48,5.76,5.76,0,0,0,3.06-1.58c.66-.81,1.1-.62,1.68,0a17.41,17.41,0,0,0,1.48,1.36c-4.09,4.53-10.19,4.35-13.72,1.11a9,9,0,0,1-.35-12.82C620.93,565,626.74,564.85,631.09,569.32Z" transform="translate(-439.5 -562.82)"/><path class="cls-1" d="M708.76,577.31c0,1.68-.06,3.36,0,5,0,1-.18,1.55-1.22,1.26-.69-.2-1.93.79-2-.89,0-.24-.53,0-.68.13a5.55,5.55,0,0,1-7.43-.69,7,7,0,0,1-1.37-7.71,5.8,5.8,0,0,1,8.72-2.79c.27.18.58.62.91-.27.4-1.07,1.66-.29,2.52-.42s.55.6.56,1C708.77,573.76,708.76,575.53,708.76,577.31Zm-3.17,0a3.48,3.48,0,0,0-3.44-3.79,3.76,3.76,0,1,0,3.44,3.79Z" transform="translate(-439.5 -562.82)"/><path class="cls-1" d="M745.68,577.28a6.65,6.65,0,0,1-6.6,6.67c-2.89.12-6.55-2.91-6.4-6.74a6.5,6.5,0,1,1,13,.07Zm-3.17,0c0-2.3-1.31-3.73-3.36-3.71s-3.29,1.61-3.27,3.8a3.42,3.42,0,0,0,3.36,3.7C741.15,581,742.52,579.42,742.51,577.24Z" transform="translate(-439.5 -562.82)"/><path class="cls-1" d="M685.39,577.33a6.56,6.56,0,0,1-6.65,6.59,6.64,6.64,0,0,1,.24-13.27A6.61,6.61,0,0,1,685.39,577.33Zm-3.17-.08c0-2.3-1.3-3.73-3.35-3.72s-3.3,1.59-3.29,3.78,1.42,3.74,3.35,3.72S682.23,579.44,682.22,577.25Z" transform="translate(-439.5 -562.82)"/><path class="cls-1" d="M646.45,577.25a6.55,6.55,0,0,1-6.57,6.67,6.64,6.64,0,0,1,.07-13.27A6.62,6.62,0,0,1,646.45,577.25Zm-3.18,0c0-2.29-1.32-3.71-3.37-3.69s-3.28,1.63-3.26,3.81A3.41,3.41,0,0,0,640,581C641.92,581,643.29,579.41,643.27,577.22Z" transform="translate(-439.5 -562.82)"/><path class="cls-1" d="M748.28,577.2c0-1.73.06-3.46,0-5.19,0-.93.31-1.29,1.14-1s2.07-.83,2.15.95a3.73,3.73,0,0,0,.94-.4,4.79,4.79,0,0,1,5.54,0,3.74,3.74,0,0,1,1.77,3.32c.06,2.55,0,5.1,0,7.65,0,.91-.2,1.23-1.18,1.2-2,0-2,0-2-2.07v-4.76c0-2.27-.66-3.24-2.22-3.29a3.16,3.16,0,0,0-3,3.34c-.07,1.87-.05,3.75,0,5.62,0,.83-.12,1.18-1.08,1.17-2.11,0-2.11,0-2.11-2.13Z" transform="translate(-439.5 -562.82)"/><path class="cls-1" d="M724,573.43c-.43.32-.8.61-1.19.87a1.71,1.71,0,0,1-2.21,0,3.77,3.77,0,0,0-5.3.63,3.81,3.81,0,0,0,5.18,5.48c1.35-1.09,2-.23,2.93.43a5,5,0,0,1,.59.62,7.66,7.66,0,0,1-10.64.6,6.62,6.62,0,0,1,.06-9.58A7.26,7.26,0,0,1,724,573.43Z" transform="translate(-439.5 -562.82)"/><path class="cls-1" d="M690.83,572.51c.86-1.24,1.6-2,2.86-1.86.67.06,1.18.15.7,1-.25.49-.31,1.07-.54,1.58-.05.12,0,.39-.37.43-1.9.19-2.28.67-2.31,2.81s-.06,4,0,6c0,.9-.24,1.22-1.12,1.1a5.06,5.06,0,0,0-1.29,0c-.67.06-.79-.26-.79-.85q0-5.53,0-11.07c0-.65.25-.9.83-.77C689.63,571.13,691.17,570.18,690.83,572.51Z" transform="translate(-439.5 -562.82)"/><path class="cls-1" d="M651.88,572.51c.86-1.24,1.6-2,2.86-1.86.67.06,1.18.15.71,1-.26.49-.32,1.07-.54,1.58,0,.12,0,.39-.38.43-1.89.19-2.27.67-2.31,2.81s-.05,4,0,6c0,.9-.25,1.22-1.13,1.1a5.06,5.06,0,0,0-1.29,0c-.66.06-.79-.26-.79-.85,0-3.69,0-7.38,0-11.07,0-.65.25-.9.84-.77C650.69,571.13,652.22,570.18,651.88,572.51Z" transform="translate(-439.5 -562.82)"/><path class="cls-1" d="M730.11,577.31c0,1.73-.06,3.45,0,5.17,0,1-.31,1.28-1.21,1.16a3.72,3.72,0,0,0-1,0c-.71.08-1-.13-1-.93,0-3.64,0-7.28,0-10.92,0-.71.25-.93.91-.86a3.53,3.53,0,0,0,.86,0c1.07-.15,1.53.16,1.45,1.36C730,574,730.11,575.64,730.11,577.31Z" transform="translate(-439.5 -562.82)"/><path class="cls-2" d="M607,585.36a2.68,2.68,0,0,1-2.68-2.54,2.24,2.24,0,0,1,2.55-2.36,2.68,2.68,0,0,1,2.63,2.45A2.32,2.32,0,0,1,607,585.36Z" transform="translate(-439.5 -562.82)"/><path class="cls-1" d="M743.51,564.59c-1.59,1.59-2.94,3-4.35,4.33-.63.61-1.47.15-2.4.34.91-1.53,1.75-2.9,2.53-4.3a.63.63,0,0,1,.67-.37Z" transform="translate(-439.5 -562.82)"/><path class="cls-1" d="M730.39,567.82a1.93,1.93,0,0,1-1.91,2,2.15,2.15,0,0,1-1.83-2.12,1.8,1.8,0,0,1,2-1.92A2,2,0,0,1,730.39,567.82Z" transform="translate(-439.5 -562.82)"/></svg>