<svg id="Capa_1" data-name="Capa 1" xmlns="http://www.w3.org/2000/svg" xmlns:xlink="http://www.w3.org/1999/xlink" viewBox="0 0 177.66 227.57"><defs><style>.cls-1{fill:none;}.cls-2{fill:#b5b5b5;}.cls-3{fill:#969696;}.cls-4{fill:#f2f2f2;}.cls-5{clip-path:url(#clip-path);}.cls-6{fill:#89bd29;}.cls-7{fill:#fff;}.cls-8{fill:#dedfe0;}.cls-9{fill:url(#Degradado_sin_nombre_45);}.cls-10{clip-path:url(#clip-path-2);}.cls-11{fill:#5208bc;}.cls-12{fill:#d3d3d3;}.cls-13{fill:url(#Degradado_sin_nombre_52);}.cls-14{fill:#fcfcfc;}.cls-15{clip-path:url(#clip-path-3);}.cls-16{fill:#c4c4c4;}.cls-17{fill:#adadad;}.cls-18{clip-path:url(#clip-path-4);}.cls-19{fill:#c6c6c6;}.cls-20{clip-path:url(#clip-path-5);}.cls-21{fill:#b2b2b2;}.cls-22{clip-path:url(#clip-path-6);}.cls-23{fill:#e8e8e8;}.cls-24{clip-path:url(#clip-path-7);}.cls-25{fill:#006faa;}.cls-26{fill:url(#Degradado_sin_nombre_40);}.cls-27{fill:#d8d8d8;}</style><clipPath id="clip-path" transform="translate(0.01 0)"><path class="cls-1" d="M102.52,141l-.74.43a1,1,0,0,0-.39,1.36.83.83,0,0,0,.08.12c3.75,5,15.52,28.93,19,36.07a2.4,2.4,0,0,1-1,3.14l-17.6,10.18A2.42,2.42,0,0,1,99,192c-2.49-2.3-8.3-7.8-15.37-15.5-9.49-10.32-20.91-30.07-24.92-40s-4-10-6-19.4c-4.48,5.71-3.15,19.09-2.79,22.06a2.14,2.14,0,0,0,.42,1c1.48,2,7.26,9.65,8.58,11.94,1.52,2.63,0,4.7-1.11,4.16A85.56,85.56,0,0,1,50,151a1.53,1.53,0,0,0-1.43-.22c-1.78.7,1.08,3.23,1.08,3.23a47.57,47.57,0,0,0,5.68,3.74,3.72,3.72,0,0,1,2.05,2.61,2.3,2.3,0,0,1-.68,2.32c-3.69,3.32-9.35,1.69-12.48.38a8.72,8.72,0,0,1-4-3.3,19,19,0,0,1-3.09-9.08,18.78,18.78,0,0,0-2.7-10.74c-14.13-27.08,3.31-51.12,4.86-55.66,9-3.18,15.13-10.62,22.07-14.56l-.21.12C68.07,65.77,76.72,63.65,84,57.4c4.71.93,35.09-1.66,51.52,24.1a18.79,18.79,0,0,0,8,7.69,19,19,0,0,1,6.33,7.21,8.72,8.72,0,0,1,.89,5.07c-.43,3.36-1.84,9.08-6.55,10.62a2.3,2.3,0,0,1-2.35-.57,3.75,3.75,0,0,1-1.24-3.08,46.72,46.72,0,0,0-.41-6.79s-.76-3.72-2.25-2.55a1.54,1.54,0,0,0-.53,1.35c.36,3.46,1.8,8.8.56,9.51s-2.63,1.52-4.16-1.11c-1.32-2.29-5.11-11.13-6.07-13.39a2.17,2.17,0,0,0-.7-.89C124.65,92.78,113.71,85,106.53,86c7.2,6.37,7.2,6.38,13.85,14.83s18.07,28.2,22.29,41.57c3.15,10,5,17.75,5.78,21.05a2.42,2.42,0,0,1-1.14,2.62l-17.6,10.18a2.4,2.4,0,0,1-3.2-.73c-4.45-6.58-19.32-28.71-21.79-34.46a1,1,0,0,0-1.31-.53l-.12.06-.74.43"/></clipPath><linearGradient id="Degradado_sin_nombre_45" x1="-360.83" y1="-159.24" x2="-346.85" y2="-159.24" gradientTransform="matrix(0.87, -0.5, -0.5, -0.87, 286.73, -221.7)" gradientUnits="userSpaceOnUse"><stop offset="0" stop-color="#5c92aa"/><stop offset="1" stop-color="#006faa"/></linearGradient><clipPath id="clip-path-2" transform="translate(0.01 0)"><circle class="cls-1" cx="60.18" cy="93.32" r="6.99"/></clipPath><linearGradient id="Degradado_sin_nombre_52" x1="-365.97" y1="-180.88" x2="-334" y2="-180.88" gradientTransform="matrix(1, 0, 0, -1, 431.75, -75.39)" xlink:href="#Degradado_sin_nombre_45"/><clipPath id="clip-path-3" transform="translate(0.01 0)"><path class="cls-1" d="M129.12,178.73l10.53,16.4a11.22,11.22,0,0,0,8.07,4.42,15.11,15.11,0,0,0,4.35-.21,18.2,18.2,0,0,0,5.6-2.12c9.16-5.25,17.65-10.09,8.59-17.5a14.92,14.92,0,0,0-5.65-2.87c-.87-.23-1.73-.43-2.51-.61a10,10,0,0,1-6.6-4.91l-2.11-3.75Z"/></clipPath><clipPath id="clip-path-4" transform="translate(0.01 0)"><path class="cls-1" d="M122.22,182.72l9,17.31a11.26,11.26,0,0,1-.19,9.2,15.23,15.23,0,0,1-2.36,3.67,18,18,0,0,1-4.63,3.8c-9.12,5.33-17.55,10.27-19.45-1.27a15,15,0,0,1,.33-6.33c.24-.87.48-1.71.73-2.48a10,10,0,0,0-1-8.17l-2.2-3.69Z"/></clipPath><clipPath id="clip-path-5" transform="translate(0.01 0)"><path class="cls-1" d="M6.63,50.18h0l9.13,15.88h0a7.32,7.32,0,0,1-10-2.7L3.93,60.19a7.32,7.32,0,0,1,2.7-10Z"/></clipPath><clipPath id="clip-path-6" transform="translate(0.01 0)"><path class="cls-1" d="M80.52,28.3h0L71.38,12.49h0a7.29,7.29,0,0,1,10,2.66h0l1.84,3.17a7.31,7.31,0,0,1-2.67,10Z"/></clipPath><clipPath id="clip-path-7" transform="translate(0.01 0)"><circle class="cls-1" cx="43.84" cy="39.78" r="38.91"/></clipPath><linearGradient id="Degradado_sin_nombre_40" x1="-363.05" y1="-103.57" x2="-313.06" y2="-103.57" xlink:href="#Degradado_sin_nombre_45"/></defs><title>astronaut</title><g id="Layer_2" data-name="Layer 2"><g id="Layer_1-2" data-name="Layer 1-2"><path class="cls-2" d="M30.61,84.1h0A3.17,3.17,0,0,1,26.29,83h0a3.17,3.17,0,0,1,1.15-4.32h0a3.16,3.16,0,0,1,4.32,1.15h0A3.17,3.17,0,0,1,30.61,84.1Z" transform="translate(0.01 0)"/><path class="cls-3" d="M91.91,123.18,61.16,141a10.6,10.6,0,0,1-13.91-3L22.87,104.1a15.49,15.49,0,0,1,3.54-21.63,13.32,13.32,0,0,1,1.28-.83L57.8,64.2Z" transform="translate(0.01 0)"/><path class="cls-2" d="M91.69,122.79l-29.6,17.12A10.2,10.2,0,0,1,48.69,137L25.41,104.66a15.21,15.21,0,0,1,3.52-21.22c.39-.28.8-.54,1.21-.78L58.84,66Z" transform="translate(0.01 0)"/><path class="cls-2" d="M85.74,44.91h0a3.17,3.17,0,0,1,4.32,1.16h0a3.15,3.15,0,0,1-1.15,4.31h0a3.16,3.16,0,0,1-4.32-1.15h0A3.17,3.17,0,0,1,85.74,44.91Z" transform="translate(0.01 0)"/><path class="cls-3" d="M91.82,123.23l30.75-17.79a10.6,10.6,0,0,0,4.35-13.55l-17.23-38A15.5,15.5,0,0,0,89.16,46.2c-.46.21-.9.44-1.34.69L57.71,64.26Z" transform="translate(0.01 0)"/><path class="cls-2" d="M91.21,123.07,120.81,106A10.2,10.2,0,0,0,125,93L108.54,56.58A15.22,15.22,0,0,0,88.41,49c-.46.21-.91.44-1.34.69l-28.7,16.6Z" transform="translate(0.01 0)"/><path class="cls-4" d="M102.52,141l-.74.43a1,1,0,0,0-.39,1.36.83.83,0,0,0,.08.12c3.75,5,15.52,28.93,19,36.07a2.4,2.4,0,0,1-1,3.14l-17.6,10.18A2.42,2.42,0,0,1,99,192c-2.49-2.3-8.3-7.8-15.37-15.5-9.49-10.32-20.91-30.07-24.92-40s-4-10-6-19.4c-4.48,5.71-3.15,19.09-2.79,22.06a2.14,2.14,0,0,0,.42,1c1.48,2,7.26,9.65,8.58,11.94,1.52,2.63,0,4.7-1.11,4.16A85.56,85.56,0,0,1,50,151a1.53,1.53,0,0,0-1.43-.22c-1.78.7,1.08,3.23,1.08,3.23a47.57,47.57,0,0,0,5.68,3.74,3.72,3.72,0,0,1,2.05,2.61,2.3,2.3,0,0,1-.68,2.32c-3.69,3.32-9.35,1.69-12.48.38a8.72,8.72,0,0,1-4-3.3,19,19,0,0,1-3.09-9.08,18.78,18.78,0,0,0-2.7-10.74c-14.13-27.08,3.31-51.12,4.86-55.66,9-3.18,15.13-10.62,22.07-14.56l-.21.12C68.07,65.77,76.72,63.65,84,57.4c4.71.93,35.09-1.66,51.52,24.1a18.79,18.79,0,0,0,8,7.69,19,19,0,0,1,6.33,7.21,8.72,8.72,0,0,1,.89,5.07c-.43,3.36-1.84,9.08-6.55,10.62a2.3,2.3,0,0,1-2.35-.57,3.75,3.75,0,0,1-1.24-3.08,46.72,46.72,0,0,0-.41-6.79s-.76-3.72-2.25-2.55a1.54,1.54,0,0,0-.53,1.35c.36,3.46,1.8,8.8.56,9.51s-2.63,1.52-4.16-1.11c-1.32-2.29-5.11-11.13-6.07-13.39a2.17,2.17,0,0,0-.7-.89C124.65,92.78,113.71,85,106.53,86c7.2,6.37,7.2,6.38,13.85,14.83s18.07,28.2,22.29,41.57c3.15,10,5,17.75,5.78,21.05a2.42,2.42,0,0,1-1.14,2.62l-17.6,10.18a2.4,2.4,0,0,1-3.2-.73c-4.45-6.58-19.32-28.71-21.79-34.46a1,1,0,0,0-1.31-.53l-.12.06-.74.43" transform="translate(0.01 0)"/><g class="cls-5"><rect class="cls-6" x="102.92" y="60.3" width="18.38" height="7.44" transform="translate(8.98 141.67) rotate(-66.7)"/><path class="cls-7" d="M84,57.4S117.5,63,131.74,77.74c11.5,16.28,9.9,9.91,11.65,12s9,4.71,4.3,19.15,12.71-8.66,12.71-8.66L136.73,63.89,86.92,52.57l-2.39,4Z" transform="translate(0.01 0)"/><rect class="cls-6" x="24.86" y="102.84" width="7.67" height="18.95" transform="translate(-85.4 132.76) rotate(-85.83)"/><rect class="cls-6" x="106.09" y="142.04" width="40.01" height="3.26" transform="translate(-61.46 106.78) rotate(-37.6)"/><rect class="cls-6" x="71.28" y="162.09" width="40.01" height="3.26" transform="translate(-55.69 47.4) rotate(-22.5)"/><path class="cls-8" d="M130.51,94.6S116,82.14,99.61,81.72c0,0,22.44,19.86,28.56,34,3.22,6.48,22.61,42.7,20.27,54C159.9,158.92,130.51,94.6,130.51,94.6Z" transform="translate(0.01 0)"/><path class="cls-8" d="M66.44,152.34s-13.54-34.22-13-45c-6,14.92-8.56,22.15-4.8,34,9.18,11.37,15.76,16.43,15.76,16.43Z" transform="translate(0.01 0)"/><path class="cls-8" d="M101.66,141.53l-3.86,2.23a1.1,1.1,0,0,0-.41,1.5l.06.09c3,4.32,15.42,22.14,23.57,38.92a1.1,1.1,0,0,0,1.46.53,1.26,1.26,0,0,0,.4-.32,7.92,7.92,0,0,0,1.68-5.34,1,1,0,0,0-.15-.47l-21.25-36.73A1.1,1.1,0,0,0,101.66,141.53Z" transform="translate(0.01 0)"/><path class="cls-7" d="M38.6,92.51c-7.44,10.56-7.1,22.87-7.14,25.5a55.79,55.79,0,0,0,2.44,16.83c3.39,5.86,4.46,10.41,4,11.47s-6,5.84-6,5.84l-15.59-27,1.65-26L38.67,83.61Z" transform="translate(0.01 0)"/></g><circle class="cls-9" cx="60.19" cy="93.32" r="6.99"/><g class="cls-10"><path class="cls-11" d="M63.92,88.92,60.67,90.8l.27-6.48-3.79,2.19.56,9.16,2.8-1.62,1,8.25Z" transform="translate(0.01 0)"/></g><path class="cls-6" d="M63.3,88.76l-3.25,1.88.27-6.48-3.79,2.19.56,9.16,2.8-1.62,1,8.25Z" transform="translate(0.01 0)"/><path class="cls-12" d="M103.94,113.17,77.79,128.63a6,6,0,0,1-8.23-2.06l0-.06L63.28,116a6,6,0,0,1,2.06-8.23l.06,0L91.56,92.22a6,6,0,0,1,8.23,2.06l0,.06,6.24,10.55a6,6,0,0,1-2,8.23Z" transform="translate(0.01 0)"/><rect class="cls-2" x="70.64" y="115.11" width="12.88" height="2.39" rx="1.19" transform="translate(-48.46 55.43) rotate(-30.6)"/><circle class="cls-6" cx="80.99" cy="113.99" r="0.95"/><rect class="cls-2" x="72.33" y="117.98" width="12.88" height="2.39" rx="1.19" transform="translate(-49.68 56.69) rotate(-30.6)"/><circle class="cls-6" cx="76.12" cy="120.75" r="0.95"/><rect class="cls-2" x="74.04" y="120.86" width="12.88" height="2.39" rx="1.19" transform="matrix(0.86, -0.51, 0.51, 0.86, -50.91, 57.96)"/><circle class="cls-6" cx="81.93" cy="121.19" r="0.95"/><rect class="cls-2" x="87.9" y="105.16" width="11.45" height="0.48" transform="translate(-40.6 62.34) rotate(-30.6)"/><rect class="cls-2" x="88.31" y="105.82" width="11.45" height="0.48" transform="translate(-40.89 62.64) rotate(-30.6)"/><rect class="cls-2" x="88.71" y="106.51" width="11.45" height="0.48" transform="matrix(0.86, -0.51, 0.51, 0.86, -41.18, 62.93)"/><rect class="cls-2" x="89.13" y="107.01" width="11.45" height="0.48" transform="matrix(0.86, -0.51, 0.51, 0.86, -41.43, 63.38)"/><rect class="cls-2" x="89.5" y="107.85" width="11.45" height="0.48" transform="translate(-41.75 63.52) rotate(-30.6)"/><rect class="cls-2" x="89.89" y="108.52" width="11.45" height="0.48" transform="matrix(0.86, -0.51, 0.51, 0.86, -42.04, 63.82)"/><rect class="cls-2" x="90.32" y="109.01" width="11.45" height="0.48" transform="translate(-42.28 64.27) rotate(-30.67)"/><rect class="cls-2" x="90.73" y="109.7" width="11.45" height="0.48" transform="translate(-42.57 64.57) rotate(-30.67)"/><rect class="cls-2" x="91.12" y="110.37" width="11.45" height="0.48" transform="matrix(0.86, -0.51, 0.51, 0.86, -42.86, 64.87)"/><rect class="cls-2" x="91.52" y="111.03" width="11.45" height="0.48" transform="translate(-43.14 65.16) rotate(-30.67)"/><rect class="cls-2" x="91.89" y="111.88" width="11.45" height="0.48" transform="matrix(0.86, -0.51, 0.51, 0.86, -43.47, 65.3)"/><rect class="cls-2" x="92.27" y="112.55" width="11.45" height="0.48" transform="translate(-43.75 65.59) rotate(-30.6)"/><rect class="cls-13" x="65.78" y="102.86" width="31.97" height="5.25" rx="2.62" transform="translate(-42.3 56.31) rotate(-30.6)"/><rect class="cls-12" x="124.79" y="90.51" width="18.95" height="3.16" transform="translate(-28.48 87.87) rotate(-32.96)"/><rect class="cls-12" x="34.4" y="142.43" width="18.95" height="3.16" transform="translate(-57.42 32.65) rotate(-25.35)"/><rect class="cls-12" x="60.23" y="130.12" width="75.35" height="6.32" transform="translate(-53.65 67.12) rotate(-30.12)"/><rect class="cls-2" x="91.39" y="129.11" width="12.63" height="8.57" rx="1.32" transform="translate(-53.73 67.04) rotate(-30.12)"/><circle class="cls-14" cx="97.72" cy="133.39" r="2.93"/><path class="cls-8" d="M129.12,178.73l10.53,16.4a11.22,11.22,0,0,0,8.07,4.42,15.11,15.11,0,0,0,4.35-.21,18.2,18.2,0,0,0,5.6-2.12c9.16-5.25,17.65-10.09,8.59-17.5a14.92,14.92,0,0,0-5.65-2.87c-.87-.23-1.73-.43-2.51-.61a10,10,0,0,1-6.6-4.91l-2.11-3.75Z" transform="translate(0.01 0)"/><g class="cls-15"><circle class="cls-16" cx="158.18" cy="175.29" r="5.64"/><path class="cls-16" d="M130.73,197.69l6.5-5.85a11.22,11.22,0,0,0,8.07,4.42,15.11,15.11,0,0,0,4.35-.21,18.2,18.2,0,0,0,5.6-2.12c9.16-5.25,17.65-10.09,8.59-17.5a14.92,14.92,0,0,0-5.65-2.87c-.87-.23-1.73-.43-2.51-.61-2.8-.61,16.27.54,14.86-2l7.11,10.48L173.79,191l-10,8.9-11.22,4.93-7,.43-6.39-2-4.44-3.17Z" transform="translate(0.01 0)"/></g><rect class="cls-12" x="125.42" y="168.96" width="26.62" height="4.96" rx="2.48" transform="translate(-67.19 92.51) rotate(-30.05)"/><rect class="cls-17" x="139.14" y="179.18" width="1.11" height="9.93" transform="translate(-73.43 94.7) rotate(-30.05)"/><rect class="cls-17" x="144.14" y="176.3" width="1.11" height="9.93" transform="translate(-71.31 96.82) rotate(-30.05)"/><rect class="cls-17" x="141.64" y="177.75" width="1.11" height="9.93" transform="translate(-72.37 95.76) rotate(-30.05)"/><path class="cls-8" d="M122.22,182.72l9,17.31a11.26,11.26,0,0,1-.19,9.2,15.23,15.23,0,0,1-2.36,3.67,18,18,0,0,1-4.63,3.8c-9.12,5.33-17.55,10.27-19.45-1.27a15,15,0,0,1,.33-6.33c.24-.87.48-1.71.73-2.48a10,10,0,0,0-1-8.17l-2.2-3.69Z" transform="translate(0.01 0)"/><g class="cls-18"><circle class="cls-16" cx="104.79" cy="206.18" r="5.64"/><path class="cls-16" d="M137.86,193.56l-8.31,2.72a11.26,11.26,0,0,1-.19,9.2,15.23,15.23,0,0,1-2.36,3.67,18,18,0,0,1-4.63,3.8c-9.12,5.33-17.55,10.27-19.45-1.27a15,15,0,0,1,.33-6.33c.24-.87.48-1.71.73-2.48.87-2.73-7.64,14.37-9.11,11.91l5.55,11.39,10.19,1.4,12.68-4.21,9.87-7.27,3.89-5.9,1.42-6.56-.53-5.43Z" transform="translate(0.01 0)"/></g><rect class="cls-12" x="97.79" y="184.92" width="26.62" height="4.96" rx="2.48" transform="translate(-78.9 80.82) rotate(-30.05)"/><rect class="cls-17" x="121.1" y="189.64" width="1.11" height="9.93" transform="translate(-81.08 87.07) rotate(-30.05)"/><rect class="cls-17" x="116.11" y="192.51" width="1.11" height="9.93" transform="translate(-83.2 84.96) rotate(-30.05)"/><rect class="cls-17" x="118.22" y="190.11" width="1.11" height="9.96" transform="translate(-81.4 85.13) rotate(-29.89)"/><rect class="cls-19" x="-0.23" y="62.4" width="5.87" height="0.72" transform="translate(-31.05 9.79) rotate(-30.05)"/><path id="ear-3" class="cls-19" d="M6.63,50.18h0l9.13,15.88h0a7.32,7.32,0,0,1-10-2.7L3.93,60.19a7.32,7.32,0,0,1,2.7-10Z" transform="translate(0.01 0)"/><g class="cls-20"><ellipse id="circle" class="cls-21" cx="34.63" cy="43.98" rx="29.49" ry="31.36" transform="translate(-11.98 13) rotate(-18.18)"/><ellipse class="cls-21" cx="4.89" cy="61.55" rx="0.9" ry="1.8" transform="translate(-30.15 10.72) rotate(-30.05)"/></g><rect class="cls-19" x="81.49" y="15.12" width="5.87" height="0.72" transform="translate(3.61 44.36) rotate(-30.05)"/><path id="ear-4" class="cls-19" d="M80.52,28.3h0L71.38,12.49h0a7.29,7.29,0,0,1,10,2.66h0l1.84,3.17a7.31,7.31,0,0,1-2.67,10Z" transform="translate(0.01 0)"/><g class="cls-22"><ellipse id="circle-2" class="cls-21" cx="52.87" cy="34.43" rx="29.25" ry="31.04" transform="translate(-10.12 31.1) rotate(-30.05)"/><ellipse class="cls-21" cx="82.25" cy="16.69" rx="0.9" ry="1.8" transform="translate(2.71 43.43) rotate(-30.05)"/></g><circle id="_Ellipse_2" data-name=" Ellipse 2" class="cls-23" cx="43.85" cy="39.78" r="38.91"/><g class="cls-24"><ellipse id="_Ellipse_3" data-name=" Ellipse 3" class="cls-4" cx="45.9" cy="38.6" rx="36.76" ry="38.91" transform="translate(-13.12 28) rotate(-29.89)"/><ellipse id="_Ellipse_4" data-name=" Ellipse 4" class="cls-7" cx="45.71" cy="38.24" rx="36.55" ry="38.78" transform="translate(-12.99 28.03) rotate(-30.05)"/><ellipse id="_Ellipse_5" data-name=" Ellipse 5" class="cls-4" cx="44.35" cy="39.03" rx="34.97" ry="38.78" transform="matrix(0.87, -0.5, 0.5, 0.87, -13.57, 27.46)"/></g><path id="purple" class="cls-25" d="M68,25.49c7.78,13.45,3.6,29.1-9.85,36.88s-31,4.75-38.83-8.7-1.63-30.24,11.82-38S60.25,12,68,25.49Z" transform="translate(0.01 0)"/><path id="purple-2" class="cls-26" d="M67.61,24.72c7.53,13,4.26,27.7-7.7,34.62a26.11,26.11,0,0,1-26.15-45.2C45.72,7.22,60.08,11.71,67.61,24.72Z" transform="translate(0.01 0)"/><g id="outline"><path class="cls-27" d="M45.16,11.75c9.13,0,17.72,4.84,22.87,13.74,7.78,13.45,3.6,29.1-9.85,36.88a31.17,31.17,0,0,1-15.59,4.22c-9.34,0-18.31-4.34-23.27-12.92-7.78-13.45-1.63-30.24,11.82-38a27.92,27.92,0,0,1,14-3.89m0-5h0a33.08,33.08,0,0,0-16.51,4.57C12.29,20.78,6.16,40.9,15,56.17c5.58,9.65,15.9,15.42,27.6,15.42A36.22,36.22,0,0,0,60.68,66.7,32,32,0,0,0,75.9,47.35,32,32,0,0,0,72.36,23c-5.88-10.17-16-16.24-27.2-16.24Z" transform="translate(0.01 0)"/></g><path class="cls-19" d="M40.69,78.27,79,56.13a7.69,7.69,0,0,1,10.5,2.76l0,0,.87,1.52h0L38.76,90.28h0l-.88-1.52a7.68,7.68,0,0,1,2.81-10.49Z" transform="translate(0.01 0)"/><path class="cls-27" d="M36.52,79.12,81.77,53a3.65,3.65,0,0,1,5,1.29l2.92,5h0L38.09,89.11h0l-2.92-5A3.66,3.66,0,0,1,36.52,79.12Z" transform="translate(0.01 0)"/><circle class="cls-2" cx="40.71" cy="82.43" r="2.26"/><circle class="cls-2" cx="47.67" cy="78.4" r="2.26"/><circle class="cls-2" cx="54.64" cy="74.38" r="2.26"/><circle class="cls-2" cx="61.6" cy="70.34" r="2.26"/><circle class="cls-2" cx="68.56" cy="66.32" r="2.26"/><circle class="cls-2" cx="75.53" cy="62.29" r="2.26"/><circle class="cls-2" cx="82.49" cy="58.26" r="2.26"/></g></g></svg>