<?xml version="1.0" encoding="utf-8"?>
<!-- Generator: Adobe Illustrator 24.0.1, SVG Export Plug-In . SVG Version: 6.00 Build 0)  -->
<svg version="1.1" id="Capa_1" xmlns="http://www.w3.org/2000/svg" xmlns:xlink="http://www.w3.org/1999/xlink" x="0px" y="0px"
	 viewBox="0 0 356.3 356.3" style="enable-background:new 0 0 356.3 356.3;" xml:space="preserve">
<style type="text/css">
	.st0{fill:#006FAA;}
	.st1{opacity:0.41;}
	.st2{fill:#C5D9FF;}
	.st3{opacity:0.31;fill:#C5D9FF;enable-background:new    ;}
	.st4{fill:#ECF1F7;}
	.st5{fill:#243762;}
	.st6{fill:#FFFFFF;}
	.st7{fill:#AF9CDA;}
	.st8{opacity:0.43;fill:#C5D9FF;enable-background:new    ;}
	.st9{opacity:0.26;}
	.st10{fill:#89BD29;}
	.st11{opacity:0.25;fill:#FFFFFF;enable-background:new    ;}
	.st12{fill:#244B9A;}
	.st13{fill:#3879E0;}
</style>
<title>imagenerror</title>
<circle class="st0" cx="178.1" cy="178.1" r="178.1"/>
<g class="st1">
	<path class="st2" d="M299,197.6c1.6-30.7-13.3-59.8-39.1-76.5c-4.6-3-7.6-7.8-8.1-13.3c0-0.3,0-0.6-0.1-0.9
		c-4.5-35.8-38-61-73.7-56.2c-34.1,4.6-58.7,22.7-55.1,57.4v0.7c0.6,9.1-6.3,17-15.5,17.6h-0.8c-2,0.1-4,0.2-6,0.4
		c-40.8,4.4-70.3,40.9-65.9,81.7c1.9,18,10.4,34.7,23.7,46.9h212.3C286.9,240.1,298.1,218.6,299,197.6z"/>
</g>
<path class="st3" d="M87.5,98.2c0,4.8-3.9,8.8-8.8,8.8S70,103,70,98.2s3.9-8.8,8.8-8.8l0,0C83.6,89.4,87.5,93.3,87.5,98.2z"/>
<circle class="st3" cx="268.5" cy="64.7" r="7.7"/>
<path class="st3" d="M309.9,139.8c0,2.9-2.3,5.3-5.2,5.3c-2.9,0-5.3-2.3-5.3-5.2c0-2.9,2.3-5.3,5.2-5.3l0,0
	C307.5,134.6,309.8,136.9,309.9,139.8C309.9,139.8,309.9,139.8,309.9,139.8z"/>
<path class="st3" d="M19.1,207c0,2.9-2.4,5.2-5.3,5.2s-5.2-2.4-5.2-5.3c0-2.9,2.3-5.2,5.2-5.2C16.7,201.7,19.1,204.1,19.1,207
	C19.1,207,19.1,207,19.1,207z"/>
<path class="st2" d="M279.5,206.1c1.4-26.1-11.4-51-33.3-65.2c-3.9-2.5-6.5-6.7-7-11.3c0-0.3,0-0.5-0.1-0.8
	c-3.8-30.6-32.4-52-62.8-47.9c-29.1,4-50.1,19.3-47,49c0,0.2,0,0.4,0,0.6c0.5,7.8-5.4,14.5-13.2,15h-0.7c-1.7,0-3.4,0.1-5.1,0.3
	c-34.8,3.7-59.9,34.9-56.2,69.7c1.6,15.3,8.8,29.5,20.2,39.9h181C269.2,242.3,278.8,224.1,279.5,206.1z"/>
<path class="st4" d="M259.5,234.4H84.8v-117c0-2,1.6-3.5,3.6-3.5h167.5c2,0,3.5,1.6,3.6,3.5V234.4z"/>
<path class="st5" d="M259.9,234.9H84.4V117.4c0-2.2,1.8-4,4-4h167.5c2.2,0,4,1.8,4,4L259.9,234.9z M85.3,234H259V117.4
	c0-1.7-1.4-3.1-3.1-3.1H88.4c-1.7,0-3.1,1.4-3.1,3.1V234z"/>
<rect x="161" y="227.8" class="st4" width="22.4" height="1.8"/>
<path class="st5" d="M183.9,230h-23.4v-2.7h23.4V230z M161.4,229.1H183v-0.9h-21.6L161.4,229.1z"/>
<path class="st4" d="M173.5,118.9c0,0.8-0.5,1.4-1.3,1.4c-0.8,0-1.4-0.5-1.4-1.3c0-0.7,0.5-1.4,1.3-1.4h0.1
	C172.9,117.6,173.5,118.2,173.5,118.9C173.5,118.9,173.5,118.9,173.5,118.9L173.5,118.9z"/>
<path class="st5" d="M172.2,120.6c-1,0-1.7-0.8-1.7-1.8c0-1,0.8-1.7,1.8-1.7c0.9,0,1.7,0.8,1.7,1.7
	C174,119.9,173.1,120.7,172.2,120.6C172.2,120.6,172.2,120.6,172.2,120.6z M172.2,118.1c-0.5,0-0.8,0.4-0.8,0.9
	c0,0.5,0.4,0.8,0.9,0.8c0,0,0.1,0,0.1,0c0.4,0,0.8-0.4,0.8-0.8C173,118.4,172.6,118,172.2,118.1z"/>
<path class="st5" d="M278,255.6H66.1c-2.3,0-4.2-1.3-4.2-2.8v-4.4c0-0.4,0.5-0.8,1.2-0.8h218c0.6,0,1.2,0.4,1.2,0.8v4.3
	C282.3,254.3,280.4,255.6,278,255.6z"/>
<path class="st5" d="M278,256.1H66.1c-2.6,0-4.6-1.4-4.6-3.2v-4.4c0-0.7,0.7-1.2,1.6-1.2h218c0.9,0,1.6,0.5,1.6,1.2v4.3
	C282.8,254.6,280.7,256.1,278,256.1z M63.1,248.1c-0.5,0-0.7,0.2-0.7,0.3v4.4c0,1.3,1.7,2.3,3.7,2.3H278c2.1,0,3.9-1.1,3.9-2.4v-4.3
	c0-0.1-0.3-0.3-0.7-0.3L63.1,248.1z"/>
<path class="st6" d="M96.4,123.5h151.4c2.1,0,3.9,1.7,3.9,3.9v94.2c0,2.1-1.7,3.9-3.9,3.9H96.4c-2.1,0-3.9-1.7-3.9-3.9v-94.2
	C92.6,125.2,94.3,123.5,96.4,123.5z"/>
<path class="st5" d="M247.9,225.8H96.4c-2.4,0-4.3-1.9-4.3-4.3v-94.2c0-2.4,1.9-4.3,4.3-4.3h151.4c2.4,0,4.3,1.9,4.3,4.3v94.2
	C252.2,223.9,250.2,225.8,247.9,225.8z M96.4,123.9c-1.9,0-3.4,1.5-3.4,3.4v94.2c0,1.9,1.5,3.5,3.4,3.5h151.4c1.9,0,3.4-1.5,3.4-3.4
	v-94.2c0-1.9-1.5-3.4-3.4-3.4H96.4z"/>
<path class="st7" d="M251.1,130.3v-2.7c-0.1-2-1.8-3.6-3.9-3.6H96.9c-2-0.1-3.8,1.5-3.8,3.6v2.7L251.1,130.3z"/>
<path class="st6" d="M237.7,127.4c0,0.5-0.4,0.9-0.9,0.9c-0.5,0-0.9-0.4-0.9-0.9c0-0.5,0.4-0.9,0.9-0.9l0,0l0,0
	C237.3,126.5,237.7,126.9,237.7,127.4z"/>
<circle class="st6" cx="240.4" cy="127.4" r="0.9"/>
<circle class="st6" cx="244" cy="127.4" r="0.9"/>
<rect x="106.1" y="141.5" class="st8" width="130.8" height="70.7"/>
<path class="st4" d="M85.5,234.1l-22.9,13.5l0,0l218.5-0.1L260,234.2L85.5,234.1z"/>
<path class="st5" d="M62.7,248h-0.1v-0.5l-0.2-0.4l23-13.5h0.1l174.6,0.1l22.5,14.2L62.7,248z M85.7,234.5l-21.4,12.6l215.3-0.1
	l-19.7-12.4L85.7,234.5z"/>
<g class="st9">
	<polygon class="st4" points="114.5,234.1 99.2,243.1 99.2,243.1 244.5,243 230.5,234.1 	"/>
	<path class="st5" d="M97.6,243.5l16.8-9.9h116.3l15.5,9.8L97.6,243.5z M114.6,234.6l-13.7,8.1l142-0.1l-12.6-8L114.6,234.6z"/>
</g>
<path class="st5" d="M138.2,161.3c0.8,0,1.4,0.6,1.4,1.4l0,0c-0.1,3,2.2,5.5,5.2,5.7c3,0.1,5.5-2.2,5.7-5.2c0-0.2,0-0.3,0-0.5
	c-0.1-0.7,0.5-1.4,1.2-1.5c0.7-0.1,1.4,0.5,1.5,1.2c0,0,0,0,0,0c0,0.1,0,0.2,0,0.2c0.2,4.5-3.3,8.3-7.8,8.4
	c-4.5,0.2-8.3-3.3-8.4-7.8c0,0,0,0,0,0c0-0.2,0-0.4,0-0.6C136.8,162,137.4,161.3,138.2,161.3C138.2,161.3,138.2,161.3,138.2,161.3
	L138.2,161.3z"/>
<path class="st5" d="M192.4,161.6c0.7,0,1.4,0.6,1.4,1.3c0,0,0,0,0,0c0,3,2.4,5.4,5.4,5.4s5.4-2.4,5.4-5.4c0,0,0,0,0,0
	c0-0.8,0.6-1.4,1.4-1.4c0.7,0,1.2,0.5,1.4,1.1v0.3c-0.2,4.5-3.9,8-8.4,7.8c-4.3-0.1-7.7-3.6-7.8-7.8l0,0
	C191.1,162.2,191.7,161.6,192.4,161.6C192.4,161.6,192.4,161.6,192.4,161.6z"/>
<path class="st5" d="M172.1,177.9c12.3,0.1,22.3,9.9,22.6,22.1c0,1-0.8,1.8-1.8,1.8c0,0,0,0,0,0h-43.5v-1.4
	C149.4,188.1,159.6,177.9,172.1,177.9z M192,199.2c-0.7-11-10.2-19.3-21.2-18.5c-10,0.7-17.9,8.6-18.5,18.5H192z"/>
<path class="st5" d="M251.1,130.8h-122c-0.3,0-0.5-0.2-0.5-0.5s0.2-0.5,0.5-0.5h122c0.3,0,0.5,0.2,0.5,0.5S251.3,130.8,251.1,130.8z
	"/>
<path class="st5" d="M227,114.3V98.7c0-8.3,6.1-15,13.6-15h11c7.5,0,13.6,6.7,13.6,15v15.5c0,8.3-6.1,15-13.6,15h-11
	C233.1,129.3,227,122.5,227,114.3z M240.6,90.8c-4,0-7.2,3.6-7.2,7.9v15.5c0,4.4,3.2,7.9,7.2,7.9h11c4,0,7.2-3.6,7.2-7.9V98.7
	c0-4.4-3.2-7.9-7.2-7.9L240.6,90.8z"/>
<path class="st6" d="M251.6,129.7h-11c-7.7,0-14-6.9-14-15.4V98.7c0-8.5,6.3-15.4,14-15.4h11c7.7,0,14,6.9,14,15.4v15.5
	C265.6,122.7,259.3,129.7,251.6,129.7z M240.6,84.2c-7.3,0-13.1,6.5-13.1,14.6v15.5c0,8,5.9,14.6,13.1,14.6h11
	c7.2,0,13.2-6.5,13.2-14.6V98.7c0-8-5.9-14.6-13.1-14.6L240.6,84.2z M251.6,122.7h-11c-4.2,0-7.6-3.8-7.6-8.4V98.7
	c0-4.6,3.4-8.4,7.6-8.4h11c4.2,0,7.6,3.8,7.6,8.4v15.5C259.2,118.9,255.8,122.6,251.6,122.7L251.6,122.7z M240.6,91.3
	c-3.7,0-6.8,3.4-6.8,7.5v15.5c0,4.1,3,7.5,6.8,7.5h11c3.7,0,6.7-3.4,6.7-7.5V98.7c0-4.1-3-7.5-6.8-7.5L240.6,91.3z"/>
<path class="st10" d="M224.8,109h42.5c3.6,0,6.5,2.9,6.5,6.5v33.1c0,3.6-2.9,6.5-6.5,6.5h-42.5c-3.6,0-6.5-2.9-6.5-6.5v-33.1
	C218.3,111.9,221.2,109,224.8,109z"/>
<path class="st5" d="M268.5,155.5h-15.6c-0.2,0-0.4-0.2-0.4-0.4s0.2-0.4,0.4-0.4h15.6c2.7,0,4.9-2.2,4.9-4.9v-30.9
	c0-0.2,0.2-0.4,0.4-0.4c0.2,0,0.4,0.2,0.4,0.4v30.9C274.2,152.9,271.7,155.4,268.5,155.5z"/>
<path class="st11" d="M228.6,115.3h35c3.6,0,6.5,2.9,6.5,6.5v22.7c0,3.6-2.9,6.5-6.5,6.5h-35c-3.6,0-6.5-2.9-6.5-6.5v-22.7
	C222.1,118.2,225,115.3,228.6,115.3z"/>
<path class="st5" d="M239.6,128c0-3.6,2.9-6.5,6.4-6.5s6.5,2.9,6.5,6.4c0,2.9-1.9,5.4-4.6,6.2v8.4h-3.8v-8.4
	C241.5,133.3,239.6,130.8,239.6,128z"/>
<path class="st5" d="M297.8,256.2H47c-0.4,0-0.7-0.3-0.7-0.7l0,0c0-0.4,0.3-0.7,0.7-0.7h250.8c0.4,0,0.7,0.3,0.7,0.7
	C298.5,255.9,298.1,256.2,297.8,256.2L297.8,256.2z"/>
<path class="st12" d="M284.1,114.5c0,5.8-4.7,10.4-10.4,10.4c-5.8,0-10.4-4.7-10.4-10.4s4.7-10.4,10.4-10.4l0,0l0,0
	C279.4,104.1,284.1,108.7,284.1,114.5z"/>
<path class="st5" d="M263.9,124.4c-0.2-0.2-0.2-0.5,0-0.6c0,0,0,0,0,0c0.2-0.2,0.4-0.2,0.6,0c5.2,5.2,13.6,5.2,18.7,0
	c5.2-5.2,5.2-13.6,0-18.7c-5.2-5.2-13.6-5.2-18.7,0c-0.2,0.2-0.5,0.2-0.6,0c-0.2-0.2-0.2-0.5,0-0.6c0,0,0,0,0,0l0,0
	c5.5-5.5,14.5-5.5,20,0c5.5,5.5,5.5,14.5,0,20C278.3,129.9,269.4,129.9,263.9,124.4C263.8,124.4,263.8,124.4,263.9,124.4
	L263.9,124.4L263.9,124.4z"/>
<path class="st6" d="M273.5,120.2c-0.4,0-0.7-0.1-1-0.4c-0.3-0.2-0.4-0.5-0.4-0.9c0-0.3,0.1-0.7,0.4-0.9c0.3-0.2,0.6-0.4,1-0.3
	c0.4,0,0.7,0.1,1,0.3c0.5,0.5,0.5,1.2,0,1.7c0,0,0,0,0,0C274.3,120.1,273.9,120.2,273.5,120.2z M274.7,110.3l-0.2,5.4
	c0,0.6-0.4,1-1,1l0,0c-0.6,0-1-0.4-1-1l-0.2-5.4c0-0.6,0.4-1,1-1h0.4C274.3,109.3,274.7,109.7,274.7,110.3z"/>
<path class="st13" d="M197.4,176.9c-0.3-3.7,1.7-4.5,3-4.6s3.8,0.4,3.7,4.1c0,3.5-1.8,6.9-3,7S197.7,180.6,197.4,176.9z"/>
</svg>
