<svg id="Capa_1" data-name="Capa 1" xmlns="http://www.w3.org/2000/svg" viewBox="0 0 57.81 41.92"><defs><style>.cls-1{fill:#006faa;}.cls-2{fill:#89bd29;}.cls-3{fill:#5c92aa;}.cls-4{fill:#5bcbf5;}.cls-5{fill:#c7f4f9;}.cls-6{fill:#5c546a;}.cls-7{fill:#e87e04;}.cls-8{fill:#ff9600;}.cls-9{fill:#ffcb39;}</style></defs><title>rocket</title><g id="Layer_2" data-name="Layer 2"><g id="Layer_1-2" data-name="Layer 1-2"><g id="rocket"><path class="cls-1" d="M16.31,41.57a7.74,7.74,0,0,0,1.91-1,9.68,9.68,0,0,0-6-17.66A10,10,0,0,0,7.3,24.57,10.57,10.57,0,0,0,5.67,26,13.83,13.83,0,1,1,33,30.27a14.76,14.76,0,0,1-.52,2.16,13.65,13.65,0,0,1-5.35,7A13.42,13.42,0,0,1,16.31,41.57Z" transform="translate(0 0.01)"/><path class="cls-2" d="M57.81,2.35a.91.91,0,0,0-.53-.78A21.74,21.74,0,0,0,36.75,3.9C32.63,6.7,22.38,15.2,12.89,23.65a3.68,3.68,0,0,0-.59,4.82l4.05,5.94a3.69,3.69,0,0,0,4.7,1.2c11.33-5.74,23-12.19,27.1-15A21.74,21.74,0,0,0,57.81,2.35Z" transform="translate(0 0.01)"/><path class="cls-3" d="M14.33,31.44l-2-3a3.68,3.68,0,0,1,.59-4.82C22.38,15.2,32.63,6.7,36.75,3.9A21.74,21.74,0,0,1,57.28,1.57a.88.88,0,0,1,.37.32h0Z" transform="translate(0 0.01)"/><path class="cls-4" d="M44.8,17.34a5.52,5.52,0,1,1,1.45-7.67h0A5.52,5.52,0,0,1,44.8,17.34Z" transform="translate(0 0.01)"/><path class="cls-3" d="M57.28,1.57A21.51,21.51,0,0,0,46.46.17l8.71,12.77A21.4,21.4,0,0,0,57.81,2.35.91.91,0,0,0,57.28,1.57Z" transform="translate(0 0.01)"/><path class="cls-2" d="M57.66,1.89a.91.91,0,0,0-.38-.32A21.51,21.51,0,0,0,46.46.17l4.35,6.38Z" transform="translate(0 0.01)"/><path class="cls-5" d="M44.8,17.34a5.52,5.52,0,0,0,1.45-7.67l-9.12,6.22A5.52,5.52,0,0,0,44.8,17.34Z" transform="translate(0 0.01)"/><path class="cls-6" d="M36.37,16.41a6.44,6.44,0,1,1,9,1.69,6.44,6.44,0,0,1-9-1.69Zm9.12-6.22a4.6,4.6,0,1,0-1.21,6.39h0A4.62,4.62,0,0,0,45.49,10.19Z" transform="translate(0 0.01)"/><g id="flame"><path class="cls-7" d="M11.39,38.49C7.39,41.21,0,41.22,0,41.22s2.33-6.63,6.7-9.61a4.16,4.16,0,0,1,4.69,6.88Z" transform="translate(0 0.01)"/><path class="cls-8" d="M11.75,36.54c-2.65,1.81-7.56,1.81-7.56,1.81S5.74,34,8.64,32a2.77,2.77,0,1,1,3.12,4.57Z" transform="translate(0 0.01)"/><path class="cls-9" d="M11.72,35.37c-1.61,1.1-4.61,1.1-4.61,1.1a9,9,0,0,1,2.71-3.89,1.68,1.68,0,0,1,1.9,2.78Z" transform="translate(0 0.01)"/></g></g></g></g></svg>