<svg id="Capa_1" data-name="Capa 1" xmlns="http://www.w3.org/2000/svg" viewBox="0 0 72 74.51"><defs><style>.cls-1{fill:#8cc63f;}</style></defs><title>logocortoverde</title><path class="cls-1" d="M682.63,409.11c4.49-.23,8.91-.71,12.7-3.49a9.67,9.67,0,0,1,1.88-1.23c1.9-.8,3.21.26,4.4,1.39a3.73,3.73,0,0,1,1.2,3.9,4.59,4.59,0,0,1-2,2.28,28.93,28.93,0,0,1-8.22,3.82,32,32,0,0,1-10.12,1.65,14.77,14.77,0,0,1-2.81-.33c-1.52-.32-1.63-.63-1.1-3-2,2.67-3.51,5.4-5.89,8-.4-2.71,1.16-4.56,1.63-6.66A8.41,8.41,0,0,0,675.7,412l-1.64,3.24c-2.17.74-3.93-.49-5.76-1.23a30.29,30.29,0,0,1-11.69-8.29A35.15,35.15,0,0,1,648,387.39a34.67,34.67,0,0,1,3.21-20.67,34,34,0,0,1,13.28-14.35,34.87,34.87,0,0,1,13.63-4.48,34.22,34.22,0,0,1,25,6.58c1.56,1.12,1.66,2,.85,3.79a11.2,11.2,0,0,1-2.7,3.44,3.1,3.1,0,0,1-3.69.18,22.81,22.81,0,0,0-10.9-4.93,25.26,25.26,0,0,0-19.54,4.56,57.29,57.29,0,0,0-5.37,5.07,21,21,0,0,1,7.64,2.73c.09-.16.17-.24.17-.32-.05-.48-1-.84-.4-1.31.38-.34,1.07-.21,1.63,0a90.87,90.87,0,0,1,18.57,10.79c1,.73,2,1.46,3,2.1a1.16,1.16,0,0,0,1.79-.4c1-1.59,1.19-3.42,1.69-5.16.76-2.66,1.74-5.09,4.92-5.66a2.58,2.58,0,0,1,1.26-.05,22.2,22.2,0,0,0,10.5.18,32.25,32.25,0,0,1,7.05-.49,6.49,6.49,0,0,1-3.83,1.39,11.18,11.18,0,0,0-7.21,3.43,62.43,62.43,0,0,0-4,5.58,16.94,16.94,0,0,0-3.21,10.31c0,4.08-2.34,7.08-5.4,9.53-3.74,3-8,5.2-11.85,8.07a16.46,16.46,0,0,0-1.66,1.57l-.28.39A.32.32,0,0,0,682.63,409.11Zm1.7-18.73a14.29,14.29,0,0,1-7.27-4.05,91.46,91.46,0,0,1-13.88-16.15c-2-3-2-3-3.66.24a25.39,25.39,0,0,0,15.88,36.37c1,.28,1.92.73,2.13,1.81C680.42,402.84,679.81,395.76,684.33,390.38Z" transform="translate(-647.6 -347.6)"/></svg>