<svg id="Capa_1" data-name="Capa 1" xmlns="http://www.w3.org/2000/svg" viewBox="0 0 19.61 29.09"><defs><style>.cls-1{fill:#89bd29;}</style></defs><title>passwordIcon</title><path class="cls-1" d="M690.71,382H688.8v-6.62a3.59,3.59,0,0,0-3.57-3.59H681.8a4,4,0,0,0-4,4v5.37h-1.9v-5.37a5.9,5.9,0,0,1,5.9-5.89h3.44a5.49,5.49,0,0,1,5.47,5.49Z" transform="translate(-673.48 -369.87)"/><path class="cls-1" d="M691.86,380.26l-17.12,0a1.25,1.25,0,0,0-1.24,1.24l0,16.22a1.25,1.25,0,0,0,1.24,1.24l17.11,0a1.24,1.24,0,0,0,1.24-1.24l0-16.22A1.24,1.24,0,0,0,691.86,380.26Zm-7.37,9.06V394h-2.14v-4.71a2.2,2.2,0,0,1-1.17-1.92,2.24,2.24,0,0,1,4.47,0A2.2,2.2,0,0,1,684.49,389.32Z" transform="translate(-673.48 -369.87)"/></svg>