<svg id="Capa_1" data-name="Capa 1" xmlns="http://www.w3.org/2000/svg" xmlns:xlink="http://www.w3.org/1999/xlink" viewBox="0 0 116.41 116.41"><defs><style>.cls-1{fill:url(#Degradado_sin_nombre_24);}.cls-2{fill:url(#Degradado_sin_nombre_20);}</style><linearGradient id="Degradado_sin_nombre_24" x1="541.45" y1="600.5" x2="657.86" y2="600.5" gradientUnits="userSpaceOnUse"><stop offset="0" stop-color="#d3ff00"/><stop offset="0.95" stop-color="#89bd29"/></linearGradient><linearGradient id="Degradado_sin_nombre_20" x1="518.96" y1="524.97" x2="633.24" y2="639.24" gradientUnits="userSpaceOnUse"><stop offset="0" stop-color="#89bd29"/><stop offset="0.85" stop-color="#a3bd29"/><stop offset="1" stop-color="#89bd29"/></linearGradient></defs><title>candado</title><path class="cls-1" d="M599.66,658.7a58.2,58.2,0,1,1,41.15-17A57.83,57.83,0,0,1,599.66,658.7Zm0-115.06a56.86,56.86,0,1,0,56.85,56.86A56.93,56.93,0,0,0,599.66,543.64Z" transform="translate(-541.45 -542.3)"/><path class="cls-2" d="M623.41,586.53h-4.09v-5.25a19.77,19.77,0,0,0-39.52,0v5.25h-3.72a3.89,3.89,0,0,0-3.89,3.89v38a3.9,3.9,0,0,0,3.89,3.9h47.33a3.91,3.91,0,0,0,3.9-3.9v-38A3.9,3.9,0,0,0,623.41,586.53Zm-19.77,28.69a3.9,3.9,0,1,1-7.79,0V603.65a3.9,3.9,0,1,1,7.79,0Zm7.88-28.69H587.59v-5.25a12,12,0,0,1,23.93,0Z" transform="translate(-541.45 -542.3)"/></svg>