<svg xmlns="http://www.w3.org/2000/svg" xmlns:xlink="http://www.w3.org/1999/xlink" viewBox="0 0 590.48 591.37"><defs><style>.cls-1{isolation:isolate;}.cls-2{fill:#fbbd30;}.cls-3,.cls-4{fill:#cc6a21;stroke:#cc6a21;}.cls-24,.cls-3,.cls-4,.cls-5{stroke-miterlimit:10;}.cls-17,.cls-3{opacity:0.3;}.cls-4{opacity:0.2;}.cls-5{fill:#ffcd5f;stroke:#ffcd5f;}.cls-6{fill:#fff;mix-blend-mode:overlay;}.cls-23,.cls-6{opacity:0.7;}.cls-7{fill:url(#radial-gradient);}.cls-8{opacity:0.6;}.cls-9{fill:#7c708e;}.cls-10{fill:#414042;}.cls-11{fill:#6d6e71;}.cls-12{fill:#9b9b9b;}.cls-13{fill:#323133;}.cls-14{fill:#ed3c2f;}.cls-15{fill:#3d3839;}.cls-15,.cls-22{opacity:0.4;}.cls-16{fill:#494546;}.cls-17,.cls-18{fill:#231f20;}.cls-18,.cls-21,.cls-24{opacity:0.5;}.cls-19,.cls-23{fill:#f1f2f2;}.cls-20{fill:#bcbec0;}.cls-22{fill:#83709b;}.cls-24{fill:none;stroke:#d8712b;stroke-width:7px;}</style><radialGradient id="radial-gradient" cx="320.43" cy="387.79" r="798.53" gradientUnits="userSpaceOnUse"><stop offset="0" stop-color="#fff"/><stop offset="1" stop-color="#edf2f2"/></radialGradient></defs><title>clock</title><g class="cls-1"><g id="Capa_1" data-name="Capa 1"><path class="cls-2" d="M305.64,894.57H872.71A450.4,450.4,0,0,0,894.4,756c0-249-201.85-450.84-450.84-450.84a455,455,0,0,0-137.92,21.28Z" transform="translate(-304.42 -305.2)"/><path class="cls-3" d="M724.9,475.41,305.64,828.16v19.11l246.16,47.3H872.71A451.46,451.46,0,0,0,763.26,438.18Z" transform="translate(-304.42 -305.2)"/><path class="cls-4" d="M305.64,894.57h504c15-43.4-6.09-89-6.09-137.5,0-117.76,14.72-224.27-63-300.94a421.47,421.47,0,0,0-297-121.88A426.39,426.39,0,0,0,305.64,357Z" transform="translate(-304.42 -305.2)"/><path class="cls-5" d="M843.15,894.57a415.92,415.92,0,0,0,23.23-137.5A421.51,421.51,0,0,0,742.57,458.13L305.64,894.57H843.15Z" transform="translate(-304.42 -305.2)"/><path class="cls-6" d="M861.64,819.78q-18.81-3-37.64-6c-22.26-3.6-44.5-7.32-66.87-10.21q-3.95-.51-7.89-1c-.2,0-4.37-.8-1.72-.22l-2.37-.5c-4.34-.9-8.72-1.54-13.12-2.11-7.82-1-16.78-1.32-24.19,1.76-4.67,1.94-8.19,5.32-8.19,10.76s3.5,8.88,8.19,10.76q8.58,3.43,17.34,6.37a11.27,11.27,0,0,0,.21,1.16,11.65,11.65,0,0,0-3.07,9.23,11,11,0,0,0-3,5c-1.22,4.4.62,10.62,5.12,12.6a193.62,193.62,0,0,0,19.12,7.18c1,3.71,4,6.58,7.89,8.14.68.28,1.37.54,2,.81a11.92,11.92,0,0,0-4.16,8.72,12.38,12.38,0,0,0,11.16,12.26c1.73.15,3.25-.14,4.66,0h78A426.44,426.44,0,0,0,861.64,819.78Z" transform="translate(-304.42 -305.2)"/><path class="cls-7" d="M304.64,896.57H815.45A401.34,401.34,0,0,0,840.33,757c0-218.95-177.49-396.43-396.43-396.43a399.32,399.32,0,0,0-139.26,24.9Z" transform="translate(-304.42 -305.2)"/><g class="cls-8"><path class="cls-9" d="M385.17,849.43l38.2-57.37L421.82,791a38.43,38.43,0,0,1-9.45-9.29l-.61-.85-51.32,2.39V750.49l45.37,2.11.35-1.57a38.45,38.45,0,0,1,35.11-29.86l1.79-.1,2-208L453,722.24l1.33.39a38.48,38.48,0,0,1,10,4.56l1.58,1,82.59-124-3.35-2.32,16.37-21,21.95-30.15-6.42-.34c-4.46-1-.6.32,0,.34,2.33-1.68,2.49-5.41,2.7-7.1l8.62-4.2c.4.52.82,1.08,1.12,1.52l1.48,2.18,1.4-1.79-.49.93,2.29,1.88-.87,1.69,7.23,2.83.87-.73a3.29,3.29,0,0,1,1.84-.79c8.12,4.27,17,9.21,18.28,10.39,2.26,3.89,8.44,23.76,9,31.27a24.24,24.24,0,0,1-.69,4.92,33.64,33.64,0,0,0-.64,3.9,91.16,91.16,0,0,0,1.71,20.61c2,8.29,12.81,25.26,14.87,28.45-.2.6-1.25,2.66-6.84,6.28l-1.08.71.25,1.27a82.46,82.46,0,0,1,1.29,10.64c.58,9.33,3.51,33.28,4,34.69,2.15,5.88,20.42,35.12,21.85,37.39.3.68.92,2.59.28,3.74l-.66,1.18.89,1a18.7,18.7,0,0,1,2.1,2.78l.06.11a2.29,2.29,0,0,1,.14.27l0,.09.08.21,0,.07,0,.09a26,26,0,0,1-.52,3.26l-.07.35.05.34a10.64,10.64,0,0,1,.15,2.14,7.09,7.09,0,0,1-4.37,2.58c-.37,0-1.15.06-2.76.06h-.24c-1.39,0-2.9,0-4,0h0c0-.16-.08-.3-.11-.44v-.15l-.07-.18a.61.61,0,0,1,0-.16,13.48,13.48,0,0,1,1-1.55,8.72,8.72,0,0,0,1.62-3.07,15.62,15.62,0,0,0,.09-3.67l-.07-1.8-1.79,0c-.52,0-.91-.05-1.1-.07a6.46,6.46,0,0,1-2.4-1.3s-.19-.22-1-1.29l-.16-.22-.22-.16-.14-.11a2.17,2.17,0,0,0-.16-2.27c-5.66-7.9-19.26-28.68-21.68-34.11-.74-1.72-5.83-22.63-8.87-35.4l-.49-2-1.87.63H619l-.48,0-.71,0A2.73,2.73,0,0,0,615,670a142.23,142.23,0,0,1-7.4,15.28c-2.85,5.25-4.57,8.42-3.86,11.92.2,1.27,2.57,25.8,4.21,43l-1.63.14.36,9.4a3.47,3.47,0,0,1-1.21.19h-.34a21.64,21.64,0,0,1-5-1.76l-.48-.22-.53.05s-2.68.28-5.5.28a20.44,20.44,0,0,1-4.69-.41,10.92,10.92,0,0,1-5.71-3.33,3.1,3.1,0,0,1,.1-.36c.74,0,1.53.06,2.34.06,2.09,0,5.95-.14,8.32-1a8.26,8.26,0,0,0,2.81-2.2l2-2.05-2.66-1.07a2.66,2.66,0,0,1-.52-.24,7,7,0,0,1-.68-1.61l1.69,1.13-.77-4.41c-3.85-22.14-6.25-36.87-6.25-38.43a60.3,60.3,0,0,1,1.19-6.9c.89-3.32,2.54-8.81,4.9-16.33l1.15-3.64-8.34,2.91c-1-5.79-.62-15.21-.34-22.26.08-2,.16-4,.2-5.6.05-2.34.59-6.57,1.11-10.66,1.19-9.34,1.26-10.91.55-12l-.62-.91-1.1.07s-1.71.11-3.85.11c-5.51,0-7.26-.71-7.66-.92-1.2-.64-5.89-5.62-13.66-15.31l-1.84-2.28-4.5,8.59-3-1.48-79.5,128.71.72,1a38.24,38.24,0,0,1,6.6,17.08l.21,1.59,108.33,5v-5.76l99.81,11.38L590.1,779.44v-6.89L477.2,777.8l-.52.9A38.47,38.47,0,0,1,457,795.31l-1.29.49,1.61,42.5-15.41.18.39-40.71-1.79-.14c-.88-.07-1.74-.16-2.57-.28l-1.25-.19-37.8,61.2ZM568.4,594.9c2.5,1.75,5.53,5.31,8,8.24,3.61,4.25,5.15,6,6.9,6a3,3,0,0,0,.42,0,15.66,15.66,0,0,0,3.71-1.76c.51-.28,1.21-.66,1.38-.74a12,12,0,0,0,3.19-2.43,12.5,12.5,0,0,1,2.33-1.89c1-.24,2.14-.48,3.34-.71l.93-.18,1.93-3.87-4.7-4.55-1.05.29a11.63,11.63,0,0,1-2.84.4,4.2,4.2,0,0,1-.71,0l-.09-.06a2,2,0,0,1-.16-.36,1.4,1.4,0,0,1-.09-.63,2.64,2.64,0,0,0-.66-2,4.23,4.23,0,0,0-1-.85,2.09,2.09,0,0,0-.33-.62,6.12,6.12,0,0,1-.37-.82,6.54,6.54,0,0,0-1.09-2,5,5,0,0,0-1.61-1l-.25-.13c.06-.37.17-.87.25-1.21a8.4,8.4,0,0,0,.34-2.28,8.17,8.17,0,0,0-.82-2.74l-.48-1.12-1.24-.06a2.33,2.33,0,0,1-1.2-.23l-.08-.28a4.83,4.83,0,0,0-.18-.57c-.43-1-.37-5.21,3.66-8.74a19.2,19.2,0,0,1,11.78-4.7,12.09,12.09,0,0,1,1.82.13c4.85.72,7.93,6,9.2,10.69a76.81,76.81,0,0,1,1.57,10.73l.17,1.94L616,586l.43-.34a8.15,8.15,0,0,0,2.51-2.84c.9-1.93-.13-5.61-2.8-13.13-.55-1.55-1.07-3-1.2-3.58-.22-1-.41-1.81-16.17-9.79a11.7,11.7,0,0,1,0-1.17l.07-1.36-4-1.62-.08,0-5.57-2.18-24.4,43.82,2.61,1.93Z" transform="translate(-304.42 -305.2)"/></g><path class="cls-10" d="M647.6,646l.06.1Z" transform="translate(-304.42 -305.2)"/><path class="cls-10" d="M576.44,542.82a5.16,5.16,0,0,0,2.36,1.7c1.17.58,2.73.65,2.91-1a1.84,1.84,0,0,0-.34-1.14,2.07,2.07,0,0,0,.91.21A2,2,0,0,0,584,541.3a1.6,1.6,0,0,0-.4-1.76,1.72,1.72,0,0,0,1.77-2.46,6.06,6.06,0,0,0-2.23-2c-1-.6-2.35-.9-2.84.43a.79.79,0,0,0-.06.28.92.92,0,0,0,0,.7,3.33,3.33,0,0,0,.31.7,2.92,2.92,0,0,0-.74-.29.73.73,0,0,0-.39-.06h0a.49.49,0,0,0-.17,0,1,1,0,0,0-.75.36,1.11,1.11,0,0,0-.47,1v0a1.07,1.07,0,0,0,0,.51,2.62,2.62,0,0,0,.56,1.13,2.15,2.15,0,0,0-2.1-.26,1.35,1.35,0,0,0-.34.27,1.22,1.22,0,0,0-.45,1.35A3.24,3.24,0,0,0,576.44,542.82Z" transform="translate(-304.42 -305.2)"/><path class="cls-10" d="M579,547.67a.93.93,0,0,0,.16-1.14c-.23-1.13-2-2.26-2.77-2.75a2.24,2.24,0,0,0-2.26-.4c-1,.47-.63,1.77-.25,2.5C574.77,547.64,577.19,549.47,579,547.67Z" transform="translate(-304.42 -305.2)"/><path class="cls-11" d="M440.8,447.68a6.29,6.29,0,0,1-6.28-6.28V393a6.29,6.29,0,0,1,12.57,0v48.4A6.29,6.29,0,0,1,440.8,447.68Z" transform="translate(-304.42 -305.2)"/><path class="cls-11" d="M762.91,765a6.28,6.28,0,0,1,0-12.56H811.3a6.28,6.28,0,0,1,0,12.56Z" transform="translate(-304.42 -305.2)"/><path class="cls-11" d="M599.75,489.36a6.27,6.27,0,0,1-5.44-9.4l24.09-42a6.29,6.29,0,0,1,8.57-2.32,6.29,6.29,0,0,1,2.33,8.58l-24.09,42A6.3,6.3,0,0,1,599.75,489.36Z" transform="translate(-304.42 -305.2)"/><path class="cls-11" d="M720.54,602.58a6.3,6.3,0,0,1-5.45-3.16,6.27,6.27,0,0,1,2.32-8.57l42-24.09a6.28,6.28,0,0,1,6.26,10.9l-42,24.08a6.24,6.24,0,0,1-3.12.84Z" transform="translate(-304.42 -305.2)"/><path class="cls-12" d="M483.47,399.3a6.47,6.47,0,1,1-6.46-6.46A6.47,6.47,0,0,1,483.47,399.3Z" transform="translate(-304.42 -305.2)"/><path class="cls-12" d="M519.92,405.77a6.47,6.47,0,1,1-6.47-6.47A6.47,6.47,0,0,1,519.92,405.77Z" transform="translate(-304.42 -305.2)"/><path class="cls-12" d="M556.82,413.93a6.47,6.47,0,1,1-6.47-6.46A6.47,6.47,0,0,1,556.82,413.93Z" transform="translate(-304.42 -305.2)"/><path class="cls-12" d="M593.22,426.86a6.46,6.46,0,1,1-6.46-6.47A6.46,6.46,0,0,1,593.22,426.86Z" transform="translate(-304.42 -305.2)"/><path class="cls-12" d="M658.55,466.31a6.46,6.46,0,1,1-2.41-8.81A6.47,6.47,0,0,1,658.55,466.31Z" transform="translate(-304.42 -305.2)"/><path class="cls-12" d="M687,490a6.47,6.47,0,1,1-2.41-8.82A6.45,6.45,0,0,1,687,490Z" transform="translate(-304.42 -305.2)"/><path class="cls-12" d="M715,515.41a6.47,6.47,0,1,1-2.41-8.82A6.47,6.47,0,0,1,715,515.41Z" transform="translate(-304.42 -305.2)"/><path class="cls-12" d="M740.17,544.69a6.46,6.46,0,1,1-2.4-8.82A6.47,6.47,0,0,1,740.17,544.69Z" transform="translate(-304.42 -305.2)"/><path class="cls-12" d="M778.22,614.42a6.46,6.46,0,1,1,2.36-8.83A6.46,6.46,0,0,1,778.22,614.42Z" transform="translate(-304.42 -305.2)"/><path class="cls-12" d="M790.89,649.2a6.46,6.46,0,1,1,2.36-8.83A6.46,6.46,0,0,1,790.89,649.2Z" transform="translate(-304.42 -305.2)"/><path class="cls-12" d="M802.32,685.22a6.46,6.46,0,1,1,2.36-8.83A6.46,6.46,0,0,1,802.32,685.22Z" transform="translate(-304.42 -305.2)"/><path class="cls-12" d="M809.38,723.21a6.47,6.47,0,1,1,2.36-8.83A6.47,6.47,0,0,1,809.38,723.21Z" transform="translate(-304.42 -305.2)"/><path class="cls-12" d="M394.53,402.36A6.46,6.46,0,1,0,401,395.9,6.46,6.46,0,0,0,394.53,402.36Z" transform="translate(-304.42 -305.2)"/><path class="cls-12" d="M358.08,408.82a6.46,6.46,0,1,0,6.46-6.46A6.46,6.46,0,0,0,358.08,408.82Z" transform="translate(-304.42 -305.2)"/><path class="cls-12" d="M321.18,417a6.46,6.46,0,1,0,6.46-6.47A6.46,6.46,0,0,0,321.18,417Z" transform="translate(-304.42 -305.2)"/><path class="cls-12" d="M790.89,872.3a6.46,6.46,0,1,0,2.36,8.83A6.46,6.46,0,0,0,790.89,872.3Z" transform="translate(-304.42 -305.2)"/><path class="cls-12" d="M802.32,836.28a6.46,6.46,0,1,0,2.36,8.83A6.46,6.46,0,0,0,802.32,836.28Z" transform="translate(-304.42 -305.2)"/><path class="cls-12" d="M809.38,798.3a6.46,6.46,0,1,0,2.36,8.83A6.46,6.46,0,0,0,809.38,798.3Z" transform="translate(-304.42 -305.2)"/><polygon class="cls-13" points="73.35 533.96 236.66 288.66 233.2 286.27 294.76 207.34 248.41 295.73 245.3 294.19 90.37 545.02 73.35 533.96"/><polygon class="cls-10" points="233.2 286.27 236.67 288.66 73.35 533.96 81.15 539.03 81.68 538.99 294.76 207.34 233.2 286.27"/><polygon class="cls-14" points="147.97 524 132.6 524.15 136.48 167.61 137.66 167.6 147.97 524"/><path class="cls-15" d="M437.46,788.89a33.11,33.11,0,0,0,6.1.57,33.86,33.86,0,0,0,7.65-.89l-1.74-60.22a36.23,36.23,0,0,0-6-.46,33.23,33.23,0,0,0-5.32.39Z" transform="translate(-304.42 -305.2)"/><polygon class="cls-16" points="49.38 469.23 49.38 435.19 49.38 432.46 52.66 432.61 354.35 446.65 354.35 455.03 49.38 469.23"/><polygon class="cls-16" points="279.03 465.59 279.03 437.25 385.1 449.34 385.1 452.16 279.03 465.59"/><polygon class="cls-17" points="49.38 469.23 279.03 458.54 279.03 465.59 385.1 452.16 385.1 451.08 49.38 451.31 49.38 469.23"/><path class="cls-18" d="M414.34,759.43A29.11,29.11,0,0,0,417,771.49L471.17,769a29.22,29.22,0,0,0-3.48-26l-46.64-2.17A29.12,29.12,0,0,0,414.34,759.43Z" transform="translate(-304.42 -305.2)"/><path class="cls-19" d="M469.38,756a25.83,25.83,0,1,1-25.82-25.82A25.82,25.82,0,0,1,469.38,756Z" transform="translate(-304.42 -305.2)"/><path class="cls-20" d="M462.67,756a19.12,19.12,0,1,1-19.11-19.11A19.12,19.12,0,0,1,462.67,756Z" transform="translate(-304.42 -305.2)"/><g class="cls-21"><path class="cls-10" d="M443.56,736.93A19.12,19.12,0,1,1,424.44,756a19.12,19.12,0,0,1,19.12-19.11m0-2A21.15,21.15,0,1,0,464.7,756a21.17,21.17,0,0,0-21.14-21.14Z" transform="translate(-304.42 -305.2)"/></g><path class="cls-22" d="M444.9,358.93a399.32,399.32,0,0,0-139.26,24.91v9.22A392.17,392.17,0,0,1,442.4,368.6c215,0,389.26,174.28,389.26,389.27a392.28,392.28,0,0,1-24.43,136.7h9.22a399.43,399.43,0,0,0,24.88-139.2C841.33,536.42,663.84,358.93,444.9,358.93Z" transform="translate(-304.42 -305.2)"/><path class="cls-23" d="M453.68,743.69a16,16,0,1,0-16.59,27Z" transform="translate(-304.42 -305.2)"/><path class="cls-24" d="M816.45,894.57A401.34,401.34,0,0,0,841.33,755c0-218.95-177.49-396.43-396.43-396.43a399.32,399.32,0,0,0-139.26,24.9" transform="translate(-304.42 -305.2)"/></g></g></svg>