<svg id="Capa_1" data-name="Capa 1" xmlns="http://www.w3.org/2000/svg" xmlns:xlink="http://www.w3.org/1999/xlink" viewBox="0 0 649 628"><defs><style>.cls-1{fill:none;}.cls-2{clip-path:url(#clip-path);}.cls-3{fill:#fbbd30;}.cls-4{fill:#d7d2d2;}.cls-10,.cls-11,.cls-12,.cls-13,.cls-14,.cls-15,.cls-16,.cls-18,.cls-19,.cls-4,.cls-5,.cls-6,.cls-7,.cls-8,.cls-9{fill-rule:evenodd;}.cls-5{fill:#e4e4e4;}.cls-20,.cls-6{fill:#fff;}.cls-7{fill:#ebb39d;}.cls-8{fill:#60629a;}.cls-9{fill:#3a3c6c;}.cls-10{fill:#f4f4f4;}.cls-11{fill:#dc8c8c;}.cls-12,.cls-17{fill:#1a1a1a;}.cls-13{fill:#4d4d4d;}.cls-14{fill:#b3b3b3;}.cls-15{fill:#0e2e66;}.cls-16{fill:#232446;}.cls-18{fill:#666;}.cls-19{fill:#7cb880;}</style><clipPath id="clip-path"><rect class="cls-1" x="-0.13" y="-46.81" width="648.88" height="675"/></clipPath></defs><title>logo_temperatura</title><g class="cls-2"><circle class="cls-3" cx="274.9" cy="376.56" r="373.07" transform="translate(-185.75 304.68) rotate(-45)"/><path class="cls-4" d="M398.63,728.6a374.05,374.05,0,0,1-287.41-16.72c4.41-50.38,11.35-126.38,14-136.2,3.95-14.84,89.94-58.52,89.94-58.52l1.15-18.49-.24,0-.15,0h0A70,70,0,0,1,157,429.7V386.27c-33.74-15.64-51.52-103.51,7.41-93.32,38-36.49,152.3-41.73,146.46,29,23.22-3.13,6.61,37.22-2.72,56.81h0l.5.26,0,0c.26.13.52.28.77.43h0a16.77,16.77,0,0,1,1.48,1h0l.42.33.05,0,.21.18,0,0,.41.36,0,0c.21.19.42.39.62.6l0,0c.13.14.26.27.38.41h0l.18.2.07.09.28.33.08.1.16.19h0l.19.24.14.18.08.12.14.19.17.24h0l.14.2.09.14a2.61,2.61,0,0,1,.17.28l.12.18.11.18.13.24.12.21.1.19.1.18c0,.11.11.21.16.31l.07.17.11.21.07.16.15.34.07.16.09.24.09.22.1.27.06.17c.05.13.09.26.13.39v0a2.78,2.78,0,0,1,.12.38l0,.12c0,.13.08.27.11.4l0,.1c0,.13.06.25.1.38v.07c0,.14.07.28.1.42l0,.14.07.36v.06h0v0c0,.14.05.27.07.41v.1c0,.15.05.3.07.44v.11l0,.37,0,.13c0,.15,0,.29,0,.44v.1c0,.15,0,.3,0,.45v0c0,.17,0,.33,0,.49v1.27c0,.12,0,.25,0,.37l0,.2v.3l0,.25,0,.26,0,.26,0,.26,0,.25,0,.3,0,.2-.05.33,0,.19h0l-.09.47h0l0,.17-.08.35,0,.16-.08.34-.05.21-.08.28-.06.24-.08.27-.06.2-.09.3-.07.23-.07.21-.1.28h0c-.05.16-.11.31-.16.46h0l0,.08-.15.39-.1.24L316,404l-.12.27-.09.21-.12.25-.09.21-.13.27-.09.19-.14.28-.09.18-.14.26-.09.18-.15.28-.24.42-.17.29-.1.15-.15.25-.12.2-.17.26-.1.15-.18.28-.11.16-.19.27-.08.11-.22.32-.05.06c-.37.49-.75,1-1.15,1.45l0,0c-.08.09-.16.19-.25.28l-.1.12-.24.27-.09.1-.27.28-.07.08-.28.28-.07.07c-.55.56-1.12,1.09-1.72,1.6l0,0-.35.29,0,0-.37.29h0a26.76,26.76,0,0,1-2.8,1.93h0l-.41.24h0a24.44,24.44,0,0,1-3.51,1.66h0l-.46.16-6.31,98.4.68.31h0l.51.23.31.14.2.1,1.28.58.32.14.43.2,3.75,1.73.16.07,4.53,2.11.11.05,1.15.54.2.09.14.07c3.14,1.48,6.67,3.15,10.47,5l.16.08,1.58.76.07,0,1.46.71.31.14,5.1,2.49.11.06.17.08,1.64.8,1.79.89,0,0,1.7.84.14.07,1.6.8.26.12,1.49.75.37.19.55.27,1.1.56.72.36,1.15.58.61.31,1.3.67.48.24,1.23.64.78.39,1.08.56.68.36,1.11.57.71.37,1.31.69.39.21,1.55.81.23.13,1.38.73.54.29.94.5.89.48.11.06,1.49.81h0l1.74,1h0l.09,0,1.63.91h0l1.7.95.07,0c.53.3,1.06.59,1.57.89l.36.2,1.18.68.65.38.94.54.65.38.86.51.63.38.89.53.61.37.84.51.59.36.81.5.62.39.7.45.64.41.7.44.58.39.69.45.54.36.64.44.57.39.55.39.56.39.55.4.52.38c.22.15.42.31.62.46l.36.27c.33.25.64.49.94.74,14.82,11.85,16.32,114.13,16.14,164.79ZM360.36,549.84l1.7.95Z"/><path class="cls-5" d="M587.71,461.88l6.32,98.4-.68.31h0l-.52.23-.3.14-.21.1-1.27.58-.32.14-.43.2-3.76,1.73-.15.07-4.53,2.11-.12.06-1.14.53-.2.09-.15.07c-3.13,1.47-6.67,3.15-10.47,5l-.15.08-1.58.76-.07,0-1.46.7-.31.15-5.1,2.49-.12,0-.17.09-1.64.8-1.79.89h0l-1.69.84-.15.08-1.59.79-.26.13-1.5.75-.36.18-.55.28-1.11.56-.72.36-1.14.58-.61.31-1.3.66-.48.25-1.24.63-.77.4-1.08.56-.68.36L541,586l-.71.37L539,587l-.4.21-1.54.81-.23.13-1.38.73-.54.29-.94.5-.89.48-.11.06-1.49.81h0l-1.74,1h0l-.08,0L528,593h0c-.58.31-1.14.63-1.7.95l-.07,0-1.58.89-.35.2-1.19.68-.65.38-.93.54-.65.38-.86.51-.64.38-.89.53-.6.37-.84.51-.59.36-.81.5-.62.39-.71.45-.64.41-.69.44-.58.39-.69.45-.54.36-.64.43-.58.4c-.18.13-.36.26-.55.38l-.55.4-.55.39-.53.39-.61.46-.36.27-.94.73c-7.81,6.25-11.92,37.56-14,73.2C586.35,612.44,648,501.7,648,376.56a375.14,375.14,0,0,0-6-66.64c-35.94,1-67.76,17-64.61,55.19-23.23-3.13-6.61,37.22,2.72,56.81h0l-.51.26,0,0c-.26.13-.52.28-.77.43h0a15.33,15.33,0,0,0-1.48,1h0l-.42.34,0,0-.21.18,0,0-.41.36,0,0c-.21.19-.42.39-.62.6l0,0c-.13.14-.26.27-.38.41h0l-.18.2-.08.09-.28.33-.08.1-.15.19h0l-.19.24L574,427l-.08.12-.14.18-.17.25h0l-.14.21-.09.14-.18.28-.11.18-.11.18-.13.24-.12.21-.11.19-.09.18c-.06.1-.11.21-.16.31l-.08.17-.1.21-.07.16-.15.34-.07.16-.1.24-.08.22-.1.27-.07.17c0,.13-.08.26-.13.38v0l-.12.38,0,.12-.12.41,0,.08c0,.13-.07.26-.1.39v.07c0,.14-.07.28-.1.42l0,.13-.07.37v.06h0v0c0,.13,0,.27-.07.4l0,.11-.06.44v.11l0,.37v.13c0,.14,0,.29,0,.44v.1l0,.45v0c0,.16,0,.32,0,.49v.1c0,.16,0,.33,0,.49s0,.35,0,.53v.15c0,.12,0,.25,0,.37v.2l0,.3,0,.25,0,.26,0,.26,0,.26,0,.25,0,.3,0,.2,0,.32,0,.2h0l.09.47h0l0,.17.07.35,0,.16.08.34,0,.21.07.28.07.25.08.26.05.2.1.3.07.23.07.21.09.28h0c.05.16.1.31.16.46h0l0,.08.15.39.1.24.09.23.12.27.09.21.11.25.1.21.12.27.1.19.13.27.1.18.13.27.1.18.15.28.24.42.17.29.09.15.16.25.12.2.17.26.09.15.19.28.11.16.19.27.07.11c.08.11.16.21.23.32l.05.06c.37.49.75,1,1.15,1.45l0,0,.24.28.11.12.24.27.09.09.26.29.08.08.27.28.07.07c.56.56,1.13,1.09,1.72,1.6l0,0,.35.29,0,0,.37.29h0a26.89,26.89,0,0,0,2.81,1.93h0l.41.24h0a23.94,23.94,0,0,0,3.51,1.66h0l.45.17ZM528,593l-1.7.95Z"/><path class="cls-6" d="M103.16,297.63a14.58,14.58,0,0,1,7.12,10h0a14.65,14.65,0,0,1-9.83,16.59l0,1.3a14.61,14.61,0,0,1,9,10.85h0A14.66,14.66,0,0,1,103,351.28a13.27,13.27,0,0,1,7.9,11.17h0a16.35,16.35,0,0,1-13,17.23l-5.06.92-.48.08q-.49,2.56-1.13,5.13c-16.3,11.74-51.43,22.32-73.43,23.38a4.91,4.91,0,0,1-5-3.45,55.63,55.63,0,0,1-1.5-5.93l-14,4.84-62.91,15.08L-94,432.29a375.12,375.12,0,0,1-4.15-55.73,379.09,379.09,0,0,1,1.9-37.87l26.12-5.49h0c.83-1.2,1.71-2.37,2.67-3.5a141.3,141.3,0,0,1,47.76-35.79,10.64,10.64,0,0,1-.44-3.36c.27-8.6,11.19-15.47,25.66-17-1.36-.73-2.1-1.16-2.1-1.16h0c-11.17-5.37-17.56-17.52-15-31.3l9.12-50C.83,172.91,18.55,158.46,36.87,159h0L180.19,162c13.7.43,24.3,16.74,23.68,36.43S191.65,233.7,178,233.27l-16-1.41c-41.36,4.4-58.81,18.47-65.64,37.93a14.66,14.66,0,0,1,15.33,13.51h0a14.66,14.66,0,0,1-8.43,14.33ZM4.75,273l.54.22L4.75,273Zm.54.22h0l.71.28H6Z"/><path class="cls-7" d="M38.82,281.34c23.2-4.32,50.47-7,67.17-.68l-3.7,92.57L-.1,407.12-63.2,421.4l-30.5,13a376.94,376.94,0,0,1-4.47-57.88c0-12.1.6-24.06,1.72-35.87l29.85-5.87h0a42.28,42.28,0,0,1,2.72-3.47,141.3,141.3,0,0,1,48.21-35.18,10.57,10.57,0,0,1-.4-3.36C-15.62,282.73-.53,275.2,17.63,276A50.64,50.64,0,0,1,38.82,281.34Z"/><path class="cls-8" d="M182.76,238.06l-16-1.61c-107,10-55.27,86.65-72.69,153C77.58,401,42.32,411.15,20.31,411.92a4.9,4.9,0,0,1-4.92-3.51c-8-26.29-.26-92.92,8-125.75A134.75,134.75,0,0,1,7.73,275h0c20.19,10,45.65-4.89,51.39-26l.59-2.5,9.76-49.86C73,178.39,61,162.84,42.64,162l143.27,4.77c13.69.61,24.08,17,23.21,36.73S196.45,238.67,182.76,238.06Z"/><path class="cls-9" d="M182.76,238.06l-16-1.61c-107,10-55.27,86.65-72.69,153C87.53,394,78.1,398.38,67.7,402c-.8-14.77-5.2-44.86-27.9-44.86-11.82,0-20.95,5.09-27.66,11.27a467.42,467.42,0,0,1,8.16-71.74c42.43,1.89,49.17-32.18,49.17-32.18s10.36-60.86,12.59-70.11S79.62,180,79.62,180C94.15,184.23,87,210.65,87,210.65H208.31C205.29,226.8,194.75,238.59,182.76,238.06Z"/><path class="cls-9" d="M179.88,237.77l-6.2-.62c4.79-1.22,9.18-4.43,12.71-9,4.86-6.33,8.08-15.25,8.53-25.27s-2-19.19-6.26-25.92c-3.38-5.31-7.91-9.08-13.07-10.49l7.37.26a29.58,29.58,0,0,1,8.16,8.67c4.59,7.21,7.19,17,6.72,27.61s-3.92,20.13-9.13,26.91A29.86,29.86,0,0,1,179.88,237.77Z"/><path class="cls-10" d="M42.64,162h0C61,162.84,73,178.39,69.47,196.59l-9.76,49.86c-3.57,18.2-21.47,32.42-39.78,31.61h0C1.61,277.25-10.47,261.7-6.9,243.51l9.76-49.86C6.42,175.45,24.32,161.23,42.64,162Z"/><path class="cls-9" d="M37,170.83h0c13.91.62,23.07,12.42,20.37,26.24L50,234.92c-2.71,13.82-16.3,24.61-30.21,24h0C5.88,258.3-3.29,246.5-.58,232.69l7.41-37.86C9.53,181,23.12,170.22,37,170.83Z"/><path class="cls-8" d="M38.22,176.84h0c13,.57,21.53,11.59,19,24.48l-6.92,35.31c-2.52,12.89-15.2,23-28.18,22.39h0c-13-.57-21.52-11.58-19-24.47L10,199.23C12.57,186.34,25.25,176.26,38.22,176.84Z"/><path class="cls-10" d="M163.29,174l-7.75-.34a7.38,7.38,0,0,0-7.68,7h0a7.39,7.39,0,0,0,7,7.69l7.75.34a7.39,7.39,0,0,0,7.68-7h0a7.39,7.39,0,0,0-7-7.69Zm-61-2.69,32.14,1.42a7.38,7.38,0,0,1,7,7.68h0a7.39,7.39,0,0,1-7.68,7L101.64,186a7.38,7.38,0,0,1-7-7.68h0A7.39,7.39,0,0,1,102.29,171.26Z"/><path class="cls-7" d="M69,275.48l31.3-1.92a14.64,14.64,0,0,1,15.47,13.68h0a14.65,14.65,0,0,1-13.68,15.48l-31.29,1.93A14.66,14.66,0,0,1,55.31,291h0A14.66,14.66,0,0,1,69,275.48Z"/><path class="cls-7" d="M66.35,305.07l30.88-5.42a14.66,14.66,0,0,1,16.91,11.87h0a14.65,14.65,0,0,1-11.86,16.91L71.4,333.85A14.64,14.64,0,0,1,54.49,322h0A14.65,14.65,0,0,1,66.35,305.07Z"/><path class="cls-7" d="M65.08,333.81,96,328.39a14.65,14.65,0,0,1,16.91,11.86h0A14.65,14.65,0,0,1,101,357.16l-30.88,5.42a14.64,14.64,0,0,1-16.91-11.86h0A14.64,14.64,0,0,1,65.08,333.81Z"/><path class="cls-7" d="M93.41,355l5.07-.85a13.22,13.22,0,0,1,15.58,12.22h0a16.36,16.36,0,0,1-13.28,17.06l-5.07.85a13.22,13.22,0,0,1-15.58-12.21h0A16.36,16.36,0,0,1,93.41,355Z"/><path class="cls-7" d="M2.74,281.61l28.38,4.29a19.67,19.67,0,0,1,16.46,22.32h0a19.67,19.67,0,0,1-22.32,16.46l-28.38-4.29a19.67,19.67,0,0,1-16.46-22.32h0A19.67,19.67,0,0,1,2.74,281.61Z"/><path class="cls-6" d="M463.64,289.58l-7.47,146.48,21.5,9.59c27.45,12.46,94.13,43.33,117.76,61.73,3.81,3,7.12,9.72,10,19.23l-12,23.64c-57.27,103.9-162.58,176.6-282.35,190.51l-19,1.78c-40,2.43-77.48-.38-118-10.72,3.26-43.56,13.87-183.77,18.1-200.51C198.1,508,332,437.69,332,437.69l1.43-29-6.94-.6c-18.71-2.49-69.94-15.35-84.29-81.92-3.63-15.77-4.34-33.78-3.46-50.89V275l-.64-48.6c-12.7-11.32-29.62-33.35-37.83-73.91-14.11-69.66,39.58-58.73,39.58-58.73,84-82.87,195.07,1.42,226.57,28.63,5.36-14.38-10.75-22.93-10.75-22.93,25.06,5.28,25.27,20.44,22.48,30.22,39.15-5.8,6.9,68.42-6.14,95.64,23.7,8.06,24.5,39.83,4,57.1A40.11,40.11,0,0,1,463.64,289.58Z"/><path class="cls-11" d="M474.65,272.72l-11,172.06c0,37.25-124.16,34.14-124.16,0l6.39-102.23S448.27,265,474.65,272.72Z"/><path class="cls-12" d="M477.27,244s60.33-111.75,12.38-105.29c2.93-9.74,2.91-24.9-22.08-30.51,0,0,16,8.76,10.44,23.07C446.88,103.65,336.9,17.9,251.85,99.67c0,0-53.55-11.64-40.36,58.2s52.77,85.35,52.77,85.35Z"/><path class="cls-13" d="M477.27,244s17.7-32.79,26.3-61.82c-8.91,12.44-24.08,22.49-49.69,17.16-22.75-4.73-28.93,17-28.28,44.47Z"/><path class="cls-13" d="M236.06,102.14c6.08-.62,11,1.6,11,5s-4.92,6.61-11,7.23-11-1.6-11-5,4.92-6.61,11-7.23Zm141.24-18c3.86,0,7,1.74,7,3.89s-3.13,3.89-7,3.89-7-1.74-7-3.89,3.13-3.89,7-3.89ZM332,69.42c15.94,0,28.86,4.29,28.86,9.58S347.94,88.58,332,88.58,303.14,84.29,303.14,79,316.06,69.42,332,69.42Z"/><path class="cls-7" d="M467.18,233.13c18.43-3,33.37,9.49,33.37,27.92s-14.94,35.8-33.37,38.81v7.76C467.18,367.8,418,417,357.77,417h0c-60.18,0-109.41-49.24-109.41-109.42V199.78c15.56,2.84,44.23-8.94,44.23-8.94S288.32,205.2,334.88,211,452.44,188.9,452.44,188.9C454.76,216.05,467.18,233.13,467.18,233.13Z"/><path class="cls-11" d="M467.18,233.13c18.43-3,33.37,9.49,33.37,27.92s-14.94,35.8-33.37,38.81v7.76C467.18,367.8,418,417,357.77,417h0a108.69,108.69,0,0,1-17.13-1.36L331.38,314c-30.89-5.57-38.83-49.55,2.16-35.79,2.85-12.1,2.14-40.31.54-67.3l.8.11c46.56,5.82,117.56-22.12,117.56-22.12C454.76,216.05,467.18,233.13,467.18,233.13Z"/><path class="cls-11" d="M248.36,213.28v-13.5c15.56,2.84,44.23-8.94,44.23-8.94S288.32,205.2,334.88,211c26.92,3.37,62-4.56,86.85-11.85-99.88,43.2-134.19,2.54-134.19,2.54C269,211.54,256.63,214,248.36,213.28Z"/><path class="cls-14" d="M463.61,444.78s107.27,48.31,138.3,73.14c3.78,3,7,9.81,9.75,19.37-60,125.58-188.26,212.34-336.76,212.34a373.4,373.4,0,0,1-97.23-12.82c6.91-78.43,16.86-185.71,20.74-200.26,6.2-23.28,141-91.77,141-91.77C339.45,478.92,463.61,482,463.61,444.78Z"/><path class="cls-15" d="M464.67,445.26C462.11,486.71,410,492,375.33,490v38.66h27.51l3,197.34a374.31,374.31,0,0,0,205.85-188.7c-2.75-9.56-6-16.34-9.75-19.37C572.68,494.54,475.83,450.32,464.67,445.26Z"/><path class="cls-16" d="M404.75,650.24,405.81,726a374.31,374.31,0,0,0,205.85-188.7,86.18,86.18,0,0,0-3.11-9.09C542.65,603.94,472,638.9,404.75,650.24Z"/><path class="cls-15" d="M339.45,444.78s-5.25,29.69,16.48,41.33L366.46,738.3a375.36,375.36,0,0,1-188.79-1.49c6.91-78.43,16.86-185.71,20.74-200.26C204.61,513.27,339.45,444.78,339.45,444.78Z"/><path class="cls-16" d="M363,654.45l3.5,83.85a375.36,375.36,0,0,1-188.79-1.49c3.31-37.55,7.31-81.7,11-119.13,43.26,19.1,98.23,36,158.31,36.92l-4.11-154.73,3.07-.07,4.1,154.83C354.33,654.65,358.63,654.6,363,654.45Z"/><path class="cls-12" d="M268.14,223.83h46.17A17.64,17.64,0,0,0,306.46,212a5.08,5.08,0,0,1-.58,4.76C293.66,206.85,274.3,214.13,268.14,223.83Z"/><path class="cls-12" d="M421.2,223.83H375A17.63,17.63,0,0,1,382.89,212a5,5,0,0,0,.58,4.76C395.69,206.85,415.05,214.13,421.2,223.83Z"/><path class="cls-12" d="M294.23,236.63h0a7,7,0,0,1,7,7v4.66a7,7,0,0,1-7,7h0a7,7,0,0,1-7-7v-4.66A7,7,0,0,1,294.23,236.63Z"/><rect class="cls-17" x="386.96" y="236.63" width="13.97" height="18.62" rx="6.98"/><path class="cls-13" d="M248.36,280.88s15.91,7.55,39.45-3.11,50-18.95,81.27,4,94.26-6.88,94.26-6.88,36.53,128.78-122.08,140.89C341.26,415.78,239.59,413.68,248.36,280.88Z"/><path class="cls-18" d="M413.34,289.59c25.83-3.26,50-14.7,50-14.7s36.53,128.78-122.08,140.89a64.57,64.57,0,0,1-7.57-.78C419,390.12,418.26,320.45,413.34,289.59Z"/><path class="cls-18" d="M307.68,290s4,26.2,40.86,23.09C348.54,313.08,301.69,338,307.68,290Z"/><path class="cls-10" d="M248.36,280.88s15.91,7.55,39.45-3.11,50-18.95,81.27,4,94.26-6.88,94.26-6.88a101.86,101.86,0,0,1,2.59,13.92c-21.66,12.67-70.27,22.33-99.4,5.65-36.17-20.73-46.31-18.89-83.31-4.07-15.1,6.05-26.81,7.43-35.39,6.95C247.82,292.09,248,286.61,248.36,280.88Z"/><path class="cls-4" d="M413.34,289.59h.1l2.22-.31.15,0c1.18-.17,2.34-.36,3.5-.56l.1,0q3-.51,5.82-1.13h0a188.26,188.26,0,0,0,21.84-6.2l.11,0c2.33-.82,4.47-1.61,6.38-2.34l.1,0,.65-.25.69-.27c.91-.36,1.75-.69,2.52-1l.57-.24.13-.05.41-.17.05,0c1-.43,1.91-.81,2.62-1.12l.34-.15.1,0,.21-.09.27-.12h0l.25-.11.12-.06.1,0,.18-.08,0,0,.13-.06.09,0h0l.08,0h0l0,0h0V275h0v0l0,.05v.06l0,.07,0,.05v0l0,.08,0,.18,0,.1,0,.08v0l.06.23,0,.13,0,.14,0,.09v.05l0,.15,0,.16,0,.17,0,.16,0,.11,0,.07,0,.19.13.59,0,.1,0,.11.19.9,0,.1,0,.14.2,1v.11l0,.09c.08.4.15.81.23,1.24l0,.07V282c.08.41.16.85.23,1.3l.05.27c.07.44.15.91.22,1.38l.05.29c.07.5.15,1,.22,1.55l0,.22c.08.55.16,1.12.23,1.71l0,.14c-11.64,6.82-31.08,12.76-51.09,14.2C414.52,298,414,293.5,413.34,289.59Z"/><path class="cls-4" d="M459.87,284c0-.13,1.14-44.41,10.24-52.4,9.78-8.59,25.46,10.2,25.51,10.26l-2.34,2c0-.05-13.73-16.44-21.15-9.93-8.08,7.1-9.2,50.06-9.2,50.18Z"/><path class="cls-6" d="M66.84,610.16A41.14,41.14,0,1,0,25.7,569,41.21,41.21,0,0,0,66.84,610.16Z"/><polygon class="cls-19" points="34.63 567.34 48.09 558.31 59.95 573.23 91.92 545.71 103.23 556.72 58.27 592.35 34.63 567.34"/><path class="cls-9" d="M107.45,492.84l-8.83,19.77-5.09-1.43,8.83-19.77,5.09,1.43Zm26.29,103.7,9.18,7.06-3.25,4.21-9.18-7.06,3.25-4.21Zm-86,24.28-5.65,14.12-4.94-2,5.65-14.12,4.94,2ZM-4.11,541l9.18,2.82-1.56,5.09-9.18-2.82Z"/></g><polygon class="cls-14" points="466.4 444.61 477.86 524.24 415.36 502.05 415.28 546.19 372.65 537.29 364.32 477.24 466.4 444.61"/><polygon class="cls-14" points="339.24 444.44 301.74 488.19 335.07 488.19 327.78 518.4 366.21 499.66 339.24 444.44"/><path class="cls-20" d="M470.06,598c3.87-.2,7.67-.62,10.93-3a8,8,0,0,1,1.62-1c1.64-.69,2.76.22,3.79,1.2a3.2,3.2,0,0,1,1,3.35,3.85,3.85,0,0,1-1.75,2,24.92,24.92,0,0,1-7.07,3.29,27.78,27.78,0,0,1-8.71,1.42,12.3,12.3,0,0,1-2.41-.29c-1.31-.27-1.4-.54-1-2.54a68.17,68.17,0,0,1-5.06,6.85c-.35-2.33,1-3.92,1.4-5.73a7.22,7.22,0,0,0,1.24-3l-1.42,2.79c-1.86.64-3.38-.43-4.95-1.07a25.88,25.88,0,0,1-10.06-7.13,30.26,30.26,0,0,1-7.43-15.75A29.87,29.87,0,0,1,443,561.54a29.33,29.33,0,0,1,11.43-12.34,29.93,29.93,0,0,1,11.72-3.86A29.41,29.41,0,0,1,487.7,551c1.34,1,1.43,1.73.73,3.25a9.33,9.33,0,0,1-2.32,3,2.65,2.65,0,0,1-3.17.16,19.7,19.7,0,0,0-9.38-4.24,21.71,21.71,0,0,0-16.81,3.92,49.06,49.06,0,0,0-4.62,4.36,18,18,0,0,1,6.57,2.35c.08-.13.15-.21.15-.27,0-.42-.82-.72-.35-1.14a1.42,1.42,0,0,1,1.41,0,78.06,78.06,0,0,1,16,9.27c.84.63,1.68,1.26,2.58,1.81a1,1,0,0,0,1.54-.34c.89-1.37,1-2.94,1.46-4.44.65-2.29,1.49-4.38,4.23-4.87a2.38,2.38,0,0,1,1.09,0,19,19,0,0,0,9,.15,27.81,27.81,0,0,1,6.07-.42,5.46,5.46,0,0,1-3.29,1.19,9.68,9.68,0,0,0-6.21,3,56,56,0,0,0-3.48,4.8,14.52,14.52,0,0,0-2.75,8.87c0,3.51-2,6.09-4.65,8.2-3.21,2.57-6.9,4.47-10.2,6.94a14,14,0,0,0-1.42,1.35l-.24.33A.26.26,0,0,0,470.06,598Zm1.47-16.11a12.24,12.24,0,0,1-6.25-3.49,78.43,78.43,0,0,1-11.95-13.89c-1.74-2.57-1.72-2.55-3.14.2A21.87,21.87,0,0,0,463.85,596c.87.23,1.65.62,1.83,1.55C468.17,592.61,467.64,586.52,471.53,581.9Z"/></svg>