<svg id="Capa_1" data-name="Capa 1" xmlns="http://www.w3.org/2000/svg" viewBox="0 0 549.89 127.77"><defs><style>.cls-1{fill:#fff;}.cls-2{fill:#88bc29;}</style></defs><title>logo</title><path class="cls-1" d="M363.18,598.69c7.71-.38,15.28-1.21,21.79-6a15.73,15.73,0,0,1,3.23-2.1c3.25-1.38,5.5.44,7.54,2.38a6.38,6.38,0,0,1,2.05,6.69c-.55,1.85-2.07,2.88-3.5,3.9a49.15,49.15,0,0,1-14.1,6.56A55.08,55.08,0,0,1,362.84,613a25.17,25.17,0,0,1-4.81-.57c-2.61-.54-2.79-1.07-1.89-5.06-3.36,4.59-6,9.26-10.09,13.65-.69-4.65,2-7.81,2.79-11.42a14.54,14.54,0,0,0,2.47-5.94l-2.83,5.55c-3.7,1.28-6.73-.84-9.86-2.11a51.88,51.88,0,0,1-20.06-14.22c-7.8-9.08-13.14-19.36-14.8-31.39A59.52,59.52,0,0,1,309.25,526,58.42,58.42,0,0,1,332,501.4a59.54,59.54,0,0,1,23.37-7.68c15.89-2,30.08,2.06,42.94,11.29,2.67,1.92,2.85,3.45,1.46,6.49a19.07,19.07,0,0,1-4.63,5.9,5.28,5.28,0,0,1-6.32.3,39.31,39.31,0,0,0-18.69-8.45,43.28,43.28,0,0,0-33.52,7.83c-3.35,2.41-5.95,5.61-9.21,8.68,4.94.5,9,2.58,13.1,4.69.15-.27.3-.41.29-.54-.07-.83-1.63-1.44-.68-2.26.65-.57,1.83-.36,2.8.06a156.44,156.44,0,0,1,31.84,18.49,62.39,62.39,0,0,0,5.14,3.6,2,2,0,0,0,3.07-.67c1.76-2.73,2.05-5.87,2.9-8.85,1.31-4.57,3-8.73,8.44-9.71a4.72,4.72,0,0,1,2.17-.09c6,1.83,12,1.36,18,.31a55.17,55.17,0,0,1,12.09-.83c-2.07,1.8-4.35,2.13-6.56,2.37a19.21,19.21,0,0,0-12.37,5.9c-2.65,2.87-4.59,6.39-6.93,9.56-3.89,5.27-5.45,11.14-5.5,17.68-.05,7-4,12.14-9.25,16.34-6.42,5.14-13.77,8.92-20.33,13.85a27.86,27.86,0,0,0-2.85,2.68l-.47.67C362.73,599.24,363,599.13,363.18,598.69Zm2.92-32.1c-5.13-.89-9-3.73-12.46-7a157.39,157.39,0,0,1-23.81-27.7c-3.46-5.12-3.43-5.08-6.27.41a43.58,43.58,0,0,0,27.23,62.38c1.73.47,3.3,1.24,3.66,3.09C359.4,587.94,358.35,575.8,366.1,566.59Z" transform="translate(-303.11 -493.22)"/><path class="cls-2" d="M723.09,543.22c2.59-.87,4.83-2.5,7.6-3a22,22,0,0,1,18.13,4.13c3.85,2.91,3.75,2.94,7.64.17,7.63-5.43,15.84-6.55,24.21-2.16,6.86,3.61,10.75,9.52,10.87,17.47s.06,15.83,0,23.74c0,2.62.8,5.17.54,7.82-.13,1.38-.06,3.29-1.36,3.6a9.31,9.31,0,0,1-6.24-.23c-.72-.34-.81-1.11-.85-1.9-.28-5.41-.59-10.81-.5-16.23.09-5.19,0-10.38,0-15.58,0-5.88-5.66-12.77-13.15-12.46-6.72.27-12.35,6.4-12.13,12.39a135.07,135.07,0,0,1-.37,14.5c-.39,5.3.67,10.62.45,16-.13,3.12-.71,3.93-3.85,3.82-5.16-.18-5.67-.48-5.56-5.8.08-4.25.27-8.54.28-12.76,0-6.39.08-12.91-1.41-19.21-1.14-4.81-6.09-8.43-10.4-8.89-7.71-.82-12.56,4.3-13.79,11a52.76,52.76,0,0,0-.41,9.3q-.11,11.63,0,23.24c0,2.23-.56,3.2-3.05,3.14-6.32-.16-6.38-.1-6.38-6.49v-46c0-3.47,0-3.47,3.36-3.47h1.48C722.38,539.29,722.38,539.29,723.09,543.22Z" transform="translate(-303.11 -493.22)"/><path class="cls-2" d="M612.67,545.6c2.81-1.53,5-3.72,8-4.77,10.93-3.9,20.92-2.62,30.1,4.76,11.53,9.28,13,28.18,3.73,39.57a28.1,28.1,0,0,1-20,10.57,27.5,27.5,0,0,1-20.66-6.35c-.36-.29-.63-.8-1.23-.44s-.19.81-.18,1.26q.06,13,0,25.95c0,1.35-.45,2.07-2,2.43-1.93.44-3.64-.4-5.49-.29-.82.06-1.16-1.09-1.51-2a7.78,7.78,0,0,1-.35-2.88q0-35.22,0-70.44c0-4.28,1-4.45,4.14-4.2a8.13,8.13,0,0,0,1.48,0c2-.22,3.09.45,3.49,2.7C612.41,542.79,612.18,544.1,612.67,545.6Zm19.38,2.1c-10.71-.38-19,8.92-19.61,18-.87,13.48,9.81,21.66,19.68,21.42a19.79,19.79,0,0,0,19.45-19.69C651.8,557.07,642.46,547.24,632.05,547.7Z" transform="translate(-303.11 -493.22)"/><path class="cls-2" d="M567.46,588.66c-6.69,5.41-14,8.25-22.26,7.45a27.78,27.78,0,0,1-18.05-8.42c-10.41-11.06-10.54-25.39-2.62-37.19,4.8-7.15,12-10.73,20.42-11.65s15.76,1.89,22.51,7.65v-27c0-3.3.2-3.5,3.51-3.5h2.47c2,0,2.94,1,2.93,3,0,4,0,8.08,0,12.11q0,31,0,62c0,3-.25,3.25-3.25,3a21.67,21.67,0,0,0-4.1-.49c-1.17.09-1.58-.62-1.56-1.71C567.48,592.34,567.46,590.72,567.46,588.66Zm0-21.74c-.51-10.59-8.48-19.15-19.66-19.09-10.95.06-19.57,8.24-19.67,19.12-.12,11.44,8,20.24,19.29,20.17C559.41,587.05,566.91,579,567.46,566.92Z" transform="translate(-303.11 -493.22)"/><path class="cls-2" d="M489,570.46c-6.5,0-13,0-19.52,0-1.77,0-2.15.27-1.66,2.23,2,7.89,10,14.06,18.19,14.53,6.86.39,12.42-2.7,16.57-8.17,2-2.61,3.78-2.84,7-.64,2,1.35,2.21,3.16.6,5.57-4.51,6.8-11,10.41-18.92,11.77a27.29,27.29,0,0,1-20.93-4.9c-7.81-5.47-12.12-13.06-12.23-22.77-.15-12.36,5.83-21.29,16.55-26.5,10.43-5.08,20.7-3.67,30.09,3.52,7.39,5.66,10,13.58,11.09,22.29.17,1.35-.7,2.44-2.47,2.64a133.79,133.79,0,0,1-15,.45Zm-2.19-8.91c5.51,0,11,0,16.54,0,1.81,0,2.07-.53,1.42-2.16a15.92,15.92,0,0,0-4.3-6.1c-4.74-4.12-10.13-6.33-16.66-5.17-7,1.25-12,4.78-15,11.29-.73,1.63-.35,2.16,1.42,2.14C475.81,561.51,481.32,561.55,486.83,561.55Z" transform="translate(-303.11 -493.22)"/><path class="cls-2" d="M796,566.24c-.52-11.22,8.91-23.71,20.87-26.63,9-2.2,17.73-1.14,25.31,5,7.76,6.27,11.33,14.34,10.81,24.31-.08,1.67-1,1.87-2,1.47a10.93,10.93,0,0,0-4.12-.4q-19.53,0-39.06,0c-2.26,0-2.89.75-2.16,2.85,2.33,6.72,6.87,11.5,13.71,13.35a18.81,18.81,0,0,0,19.09-4.93,19.61,19.61,0,0,0,1.33-1.71,5.38,5.38,0,0,1,5.64-2.24c3.8.78,4.55,4.23,2.41,7a28,28,0,0,1-20.56,11.44,26.82,26.82,0,0,1-18.33-4.54C800.63,585.51,795.84,577.81,796,566.24Zm28.7-4.69h15.83c2.77,0,3-.45,1.76-3a19.36,19.36,0,0,0-7.35-7.88c-10.18-6.51-22.76-2.08-28,8-1.11,2.14-.56,2.91,1.93,2.92Z" transform="translate(-303.11 -493.22)"/><path class="cls-2" d="M709.44,566.6c0,7.75.32,15.51-.09,23.24-.38,7-1,14-4.25,20.51-3.56,7.2-11.2,10.47-19.32,9.22a25.33,25.33,0,0,1-12.37-5c-1.73-1.36-1.79-2.47-.42-3.94.56-.6,1.16-1.17,1.74-1.75,2.38-2.34,2.83-2.18,5.49-.17,5.84,4.42,12.87,3.55,17.82-3,2.55-3.36,2.51-7.43,2.93-11.32.2-1.88-1.17-2.44-2.84-1.49-12.56,7.11-28.9-.12-31.17-14.5-1.44-9.08-1.35-18.32-.9-27.48.15-2.86-.17-5.64-.16-8.46,0-2.16.76-3.25,3.2-3.2,5.7.12,5.71,0,5.71,5.75q0,14.22,0,28.44a13,13,0,0,0,13.61,13.32c5.92-.32,11.24-5.33,11.68-11,.87-11.1.21-22.2.36-33.3,0-2.41.53-3.32,3.13-3.24,5.84.18,5.84,0,5.84,5.85Z" transform="translate(-303.11 -493.22)"/><path class="cls-2" d="M440.47,543.54c2.83-.94,5.2-3,8.21-3.49,1.78-.31,3.55-.84,4.94.92s1.35,3.9.62,6a2.58,2.58,0,0,1-2.09,1.78c-7.42,1.7-12.18,7.15-11.91,15.11.34,9.63.08,19.27.08,28.91,0,3.19-.23,3.42-3.33,3.43-5.73,0-6.07-.32-6.07-6.07s-.25-11.71.06-17.54c.49-9.36.42-18.71.44-28.07,0-3.5,1.1-5,3.74-5.21C439,539,439.79,539.66,440.47,543.54Z" transform="translate(-303.11 -493.22)"/><path class="cls-2" d="M585.76,567.48q0-12.62,0-25.21c0-3.47,0-3.47,3.35-3.47,5.08,0,5.55.45,5.55,5.54v47.95c0,3.57-.33,3.92-3.93,3.88-5.75,0-4.94.78-5-5C585.74,583.29,585.76,575.38,585.76,567.48Z" transform="translate(-303.11 -493.22)"/><path class="cls-1" d="M681.24,527v6.54c0,3.4,0,3.39-3.68,3.29-.88,0-1.79.23-1.78-1.26.05-9,0-18.11,0-27.16,0-.95.38-1.58,1.25-1.22,1.39.57,3.68-1.61,4.3,1.44.11.51.93,0,1.34-.24,5.33-3.3,9.8-1.65,12.92,1.51s3.84,8.76,2,12.88a10.58,10.58,0,0,1-10.45,6.65C685,529.35,683.33,528,681.24,527Zm11.88-8.89c0-3.61-2.52-6.48-5.77-6.51-3.54,0-6.07,2.56-6.11,6.28s2.47,6.58,6,6.58S693.09,521.71,693.12,518.1Z" transform="translate(-303.11 -493.22)"/><path class="cls-1" d="M631.66,504.37a1.92,1.92,0,0,1-.25.38c-1,1.05-1.92,2.45-3.18,3.06-1.51.74-2.14-1.27-3.26-1.92-5.49-3.21-10.83-1.61-13.7,1.68-2.66,3-3,8.14-.76,12,1.91,3.21,7,5.32,10.66,4.25,1.9-.56,3.93-1.1,5.25-2.72,1.12-1.37,1.88-1.05,2.87.09a29.45,29.45,0,0,0,2.53,2.34c-7,7.77-17.46,7.45-23.51,1.9s-6.73-16-.62-22C614.24,497,624.2,496.7,631.66,504.37Z" transform="translate(-303.11 -493.22)"/><path class="cls-1" d="M764.85,518.06c0,2.89-.1,5.77,0,8.65.08,1.64-.3,2.65-2.08,2.15-1.19-.33-3.33,1.37-3.51-1.52,0-.42-.91,0-1.17.23-4.07,3.31-9.49,2-12.74-1.19s-4.26-8.15-2.35-13.23a10,10,0,0,1,15-4.78c.47.32,1,1.07,1.56-.45.69-1.83,2.84-.51,4.32-.74s1,1,1,1.74C764.87,512,764.85,515,764.85,518.06Zm-5.44,0c0-3.8-2.42-6.49-5.89-6.5a6.07,6.07,0,0,0-6,6.29c0,3.79,2.49,6.57,6,6.57A6.07,6.07,0,0,0,759.41,518.09Z" transform="translate(-303.11 -493.22)"/><path class="cls-1" d="M828.17,518a11.42,11.42,0,0,1-11.32,11.43c-5,.2-11.23-5-11-11.55.23-6.27,5-11.3,11.23-11.25A11.3,11.3,0,0,1,828.17,518Zm-5.44-.08c0-3.94-2.25-6.39-5.77-6.35-3.28,0-5.63,2.76-5.61,6.51s2.46,6.38,5.77,6.35S822.75,521.68,822.73,517.94Z" transform="translate(-303.11 -493.22)"/><path class="cls-1" d="M724.78,518.1a11.26,11.26,0,0,1-11.41,11.3c-6.1,0-10.88-5.1-10.86-11.58a11.17,11.17,0,0,1,11.27-11.18A11.38,11.38,0,0,1,724.78,518.1Zm-5.45-.14c0-3.94-2.22-6.4-5.74-6.37-3.3,0-5.65,2.73-5.63,6.48s2.42,6.4,5.74,6.38S719.35,521.72,719.33,518Z" transform="translate(-303.11 -493.22)"/><path class="cls-1" d="M658,518a11.23,11.23,0,0,1-11.26,11.44c-6.2,0-11-5-11-11.44a11.16,11.16,0,0,1,11.12-11.32A11.34,11.34,0,0,1,658,518Zm-5.44-.05c0-3.93-2.26-6.37-5.79-6.32-3.26,0-5.62,2.79-5.59,6.53s2.48,6.37,5.79,6.33S652.58,521.66,652.55,517.91Z" transform="translate(-303.11 -493.22)"/><path class="cls-1" d="M832.62,517.88c0-3,.1-5.94,0-8.9-.07-1.61.54-2.21,1.95-1.81s3.56-1.41,3.69,1.64a6.29,6.29,0,0,0,1.62-.7c3.14-1.91,6.25-2.15,9.5-.05a6.45,6.45,0,0,1,3,5.7c.1,4.37,0,8.74.06,13.11,0,1.58-.35,2.12-2,2.07-3.46-.08-3.46,0-3.46-3.56v-8.16c0-3.89-1.13-5.55-3.81-5.63s-5,2.38-5.07,5.72-.09,6.43,0,9.65c0,1.41-.21,2-1.85,2-3.62-.06-3.62,0-3.62-3.65Z" transform="translate(-303.11 -493.22)"/><path class="cls-1" d="M791,511.42c-.75.54-1.39,1-2,1.49a3,3,0,0,1-3.79,0c-3.12-2.2-7.07-1.68-9.09,1.08a6.57,6.57,0,0,0,1.19,9.31c1.79,1.44,5.44,1.92,7.69.09s3.51-.41,5,.73a7.88,7.88,0,0,1,1,1.06c-4.86,5.78-14.22,5.15-18.25,1a11.35,11.35,0,0,1,.1-16.42C777,505.78,786,504.77,791,511.42Z" transform="translate(-303.11 -493.22)"/><path class="cls-1" d="M734.09,509.83c1.48-2.12,2.75-3.4,4.91-3.19,1.15.1,2,.26,1.22,1.78-.45.83-.55,1.83-.93,2.71-.09.2,0,.66-.64.73-3.26.33-3.91,1.14-4,4.82,0,3.45-.09,6.91,0,10.35,0,1.55-.42,2.09-1.93,1.89a9.69,9.69,0,0,0-2.22,0c-1.14.12-1.35-.43-1.35-1.44q.06-9.5,0-19c0-1.11.43-1.55,1.43-1.33C732.05,507.47,734.68,505.83,734.09,509.83Z" transform="translate(-303.11 -493.22)"/><path class="cls-1" d="M667.31,509.83c1.48-2.12,2.75-3.4,4.91-3.19,1.15.1,2,.26,1.21,1.78-.44.83-.55,1.83-.93,2.71-.09.2,0,.66-.64.73-3.25.33-3.9,1.14-4,4.82-.06,3.45-.1,6.91,0,10.35.06,1.55-.42,2.09-1.92,1.89a9.7,9.7,0,0,0-2.22,0c-1.14.12-1.36-.43-1.35-1.44,0-6.33,0-12.66,0-19,0-1.11.43-1.55,1.44-1.33C665.27,507.47,667.89,505.83,667.31,509.83Z" transform="translate(-303.11 -493.22)"/><path class="cls-1" d="M801.46,518.07c0,3-.11,5.92,0,8.87.08,1.68-.53,2.19-2.08,2a7.61,7.61,0,0,0-1.72,0c-1.22.14-1.73-.21-1.72-1.58.07-6.24.06-12.49,0-18.73,0-1.23.43-1.6,1.57-1.47a6,6,0,0,0,1.47,0c1.82-.26,2.62.27,2.48,2.33C801.31,512.31,801.46,515.2,801.46,518.07Z" transform="translate(-303.11 -493.22)"/><path class="cls-2" d="M590.37,531.87c-2.5,0-4.69-2.1-4.6-4.35.1-2.67,1.66-4.12,4.37-4.06a4.6,4.6,0,0,1,4.51,4.2A4,4,0,0,1,590.37,531.87Z" transform="translate(-303.11 -493.22)"/><path class="cls-1" d="M824.44,496.25c-2.72,2.73-5.05,5.13-7.46,7.43-1.08,1-2.52.25-4.11.58,1.56-2.62,3-5,4.34-7.38a1.1,1.1,0,0,1,1.15-.63Z" transform="translate(-303.11 -493.22)"/><path class="cls-1" d="M802,501.8a3.31,3.31,0,0,1-3.29,3.35,3.7,3.7,0,0,1-3.14-3.64,3.08,3.08,0,0,1,3.35-3.28A3.35,3.35,0,0,1,802,501.8Z" transform="translate(-303.11 -493.22)"/></svg>