<svg id="Capa_1" data-name="Capa 1" xmlns="http://www.w3.org/2000/svg" viewBox="0 0 320.67 74.51"><defs><style>.cls-1{fill:#fff;}.cls-2{fill:#244b9a;}</style></defs><title>logo_temperatura</title><path class="cls-1" d="M558.16,409.11c4.49-.23,8.91-.71,12.7-3.49a10.06,10.06,0,0,1,1.89-1.23c1.89-.8,3.2.26,4.39,1.39a3.73,3.73,0,0,1,1.2,3.9,4.59,4.59,0,0,1-2,2.28,28.93,28.93,0,0,1-8.22,3.82A32,32,0,0,1,558,417.43a14.77,14.77,0,0,1-2.81-.33c-1.52-.32-1.63-.63-1.1-3-2,2.67-3.51,5.4-5.88,8-.41-2.71,1.15-4.56,1.63-6.66a8.54,8.54,0,0,0,1.44-3.47l-1.65,3.24c-2.17.74-3.93-.49-5.76-1.23a30.29,30.29,0,0,1-11.69-8.29,35.06,35.06,0,0,1-8.63-18.31,34.67,34.67,0,0,1,3.2-20.67A34,34,0,0,1,540,352.37a34.92,34.92,0,0,1,13.63-4.48,34.2,34.2,0,0,1,25,6.58c1.56,1.12,1.66,2,.85,3.79a11.05,11.05,0,0,1-2.7,3.44,3.1,3.1,0,0,1-3.69.18A22.77,22.77,0,0,0,562.23,357a25.27,25.27,0,0,0-19.55,4.56,57.29,57.29,0,0,0-5.37,5.07,21,21,0,0,1,7.64,2.73c.09-.16.18-.24.17-.32,0-.48-1-.84-.4-1.31.38-.34,1.07-.21,1.63,0a90.87,90.87,0,0,1,18.57,10.79c1,.73,2,1.46,3,2.1a1.16,1.16,0,0,0,1.79-.4c1-1.59,1.19-3.42,1.69-5.16.76-2.66,1.74-5.09,4.92-5.66a2.62,2.62,0,0,1,1.27-.05,22.16,22.16,0,0,0,10.49.18,32.25,32.25,0,0,1,7-.49,6.49,6.49,0,0,1-3.83,1.39,11.2,11.2,0,0,0-7.21,3.43,62.43,62.43,0,0,0-4,5.58,16.94,16.94,0,0,0-3.21,10.31c0,4.08-2.34,7.08-5.39,9.53-3.74,3-8,5.2-11.86,8.07a16.46,16.46,0,0,0-1.66,1.57l-.28.39A.32.32,0,0,0,558.16,409.11Zm1.7-18.73a14.29,14.29,0,0,1-7.27-4.05,91.46,91.46,0,0,1-13.88-16.15c-2-3-2-3-3.66.24a25.41,25.41,0,0,0,15.88,36.37c1,.28,1.92.73,2.13,1.81C556,402.84,555.34,395.76,559.86,390.38Z" transform="translate(-523.13 -347.6)"/><path class="cls-2" d="M768,376.76c1.51-.51,2.82-1.46,4.43-1.77A12.84,12.84,0,0,1,783,377.4c2.25,1.69,2.19,1.71,4.46.1,4.45-3.17,9.24-3.82,14.11-1.26A11.12,11.12,0,0,1,808,386.42c.07,4.62,0,9.23,0,13.85,0,1.53.47,3,.32,4.56-.08.8,0,1.92-.79,2.1a5.43,5.43,0,0,1-3.64-.13c-.43-.2-.48-.65-.5-1.12-.16-3.15-.34-6.3-.29-9.46s0-6.05,0-9.08a7.64,7.64,0,0,0-7.66-7.27c-3.92.16-7.2,3.73-7.08,7.23a79.53,79.53,0,0,1-.21,8.45c-.23,3.09.39,6.2.26,9.31-.08,1.82-.41,2.3-2.24,2.23-3-.1-3.31-.28-3.25-3.38,0-2.48.16-5,.17-7.44a48.37,48.37,0,0,0-.83-11.2,7.36,7.36,0,0,0-6.06-5.19c-4.49-.47-7.32,2.51-8,6.41a30.83,30.83,0,0,0-.24,5.42q-.06,6.78,0,13.56c0,1.3-.32,1.86-1.77,1.83-3.69-.1-3.72-.06-3.72-3.79q0-13.41,0-26.82c0-2,0-2,2-2h.87C767.62,374.46,767.62,374.46,768,376.76Z" transform="translate(-523.13 -347.6)"/><path class="cls-2" d="M703.65,378.14c1.64-.89,2.92-2.17,4.64-2.78,6.37-2.27,12.2-1.53,17.55,2.78,6.72,5.41,7.61,16.43,2.17,23.07a16.38,16.38,0,0,1-11.64,6.17,16,16,0,0,1-12-3.7c-.21-.17-.37-.47-.72-.26s-.11.47-.11.73c0,5.05,0,10.09,0,15.14,0,.78-.26,1.2-1.18,1.41-1.13.26-2.13-.23-3.2-.16-.48,0-.68-.64-.88-1.16a4.47,4.47,0,0,1-.21-1.68q0-20.54,0-41.08c0-2.49.56-2.59,2.41-2.45a4.12,4.12,0,0,0,.86,0c1.19-.12,1.81.26,2,1.58A13.28,13.28,0,0,0,703.65,378.14Zm11.3,1.23c-6.25-.22-11.1,5.2-11.44,10.47A11.41,11.41,0,0,0,715,402.33a11.54,11.54,0,0,0,11.34-11.48C726.47,384.83,721,379.1,715,379.37Z" transform="translate(-523.13 -347.6)"/><path class="cls-2" d="M677.28,403.25c-3.9,3.16-8.13,4.82-13,4.35a16.19,16.19,0,0,1-10.53-4.91c-6.06-6.45-6.14-14.81-1.52-21.69,2.8-4.17,7-6.26,11.9-6.79s9.2,1.1,13.13,4.46V363c0-1.93.12-2,2.05-2h1.44c1.18,0,1.72.6,1.71,1.76,0,2.36,0,4.71,0,7.07q0,18.07,0,36.17c0,1.74-.14,1.9-1.89,1.73a12.8,12.8,0,0,0-2.39-.29c-.69.06-.92-.36-.91-1C677.3,405.4,677.28,404.46,677.28,403.25Zm0-12.68a11.47,11.47,0,0,0-22.94,0c-.06,6.67,4.7,11.8,11.26,11.76C672.59,402.32,677,397.65,677.28,390.57Z" transform="translate(-523.13 -347.6)"/><path class="cls-2" d="M631.54,392.64c-3.79,0-7.59,0-11.39,0-1,0-1.25.15-1,1.29a11.91,11.91,0,0,0,10.61,8.48,11,11,0,0,0,9.66-4.77c1.15-1.52,2.2-1.65,4.09-.37,1.16.79,1.29,1.84.36,3.25a15.73,15.73,0,0,1-11,6.86,16,16,0,0,1-12.21-2.86,15.75,15.75,0,0,1-7.13-13.27c-.08-7.21,3.4-12.42,9.65-15.46,6.08-3,12.07-2.14,17.55,2.06,4.31,3.3,5.85,7.91,6.47,13,.09.79-.41,1.43-1.44,1.54a77.26,77.26,0,0,1-8.74.27Zm-1.28-5.19c3.22,0,6.43,0,9.65,0,1.05,0,1.21-.31.82-1.26a9.27,9.27,0,0,0-2.5-3.56c-2.77-2.4-5.91-3.69-9.72-3a11,11,0,0,0-8.72,6.58c-.43,1-.21,1.26.83,1.25C623.83,387.42,627.05,387.45,630.26,387.45Z" transform="translate(-523.13 -347.6)"/><path class="cls-2" d="M810.53,390.18c-.3-6.55,5.2-13.83,12.17-15.53,5.26-1.28,10.34-.67,14.76,2.9a16.18,16.18,0,0,1,6.31,14.18c0,1-.56,1.09-1.17.86a6.16,6.16,0,0,0-2.4-.23H817.42c-1.32,0-1.69.45-1.26,1.67a11.44,11.44,0,0,0,8,7.78,11,11,0,0,0,11.13-2.87,10.37,10.37,0,0,0,.78-1,3.13,3.13,0,0,1,3.29-1.3c2.21.45,2.65,2.46,1.4,4.09a16.29,16.29,0,0,1-12,6.67,15.64,15.64,0,0,1-10.69-2.65A16.25,16.25,0,0,1,810.53,390.18Zm16.74-2.73h9.23c1.61,0,1.75-.26,1-1.75a11.26,11.26,0,0,0-4.28-4.59,11.43,11.43,0,0,0-16.33,4.64c-.65,1.25-.32,1.7,1.13,1.7Z" transform="translate(-523.13 -347.6)"/><path class="cls-2" d="M760.08,390.39c0,4.52.18,9.05-.06,13.55-.22,4.08-.58,8.15-2.47,12-2.08,4.2-6.53,6.11-11.27,5.38a14.87,14.87,0,0,1-7.22-2.92c-1-.8-1-1.44-.24-2.3.33-.35.68-.68,1-1,1.38-1.37,1.65-1.27,3.2-.1,3.4,2.58,7.5,2.07,10.39-1.75,1.48-2,1.46-4.33,1.71-6.6.12-1.1-.68-1.43-1.66-.88-7.32,4.15-16.85-.07-18.18-8.45a78,78,0,0,1-.52-16c.09-1.68-.1-3.29-.09-4.94,0-1.26.44-1.89,1.86-1.86,3.33.06,3.33,0,3.33,3.35,0,5.53,0,11,0,16.58a7.55,7.55,0,0,0,7.93,7.77,7.38,7.38,0,0,0,6.82-6.4c.5-6.48.12-12.95.21-19.42,0-1.41.3-1.94,1.82-1.89,3.41.11,3.41,0,3.41,3.41Z" transform="translate(-523.13 -347.6)"/><path class="cls-2" d="M603.23,376.94c1.65-.55,3-1.73,4.79-2,1-.18,2.07-.49,2.88.53a3.43,3.43,0,0,1,.36,3.49,1.5,1.5,0,0,1-1.22,1c-4.33,1-7.11,4.17-6.94,8.81.19,5.62,0,11.24,0,16.86,0,1.86-.13,2-1.94,2-3.34,0-3.54-.18-3.54-3.54s-.14-6.83,0-10.23c.29-5.46.25-10.91.26-16.37,0-2,.64-2.93,2.18-3C602.37,374.31,602.83,374.68,603.23,376.94Z" transform="translate(-523.13 -347.6)"/><path class="cls-2" d="M688,390.9V376.2c0-2,0-2,1.95-2,3,0,3.24.26,3.24,3.23v28c0,2.08-.2,2.28-2.29,2.27-3.35,0-2.88.45-2.9-2.9C687.94,400.13,688,395.51,688,390.9Z" transform="translate(-523.13 -347.6)"/><path class="cls-1" d="M743.63,367.29v3.82c0,2,0,2-2.14,1.91-.52,0-1,.14-1-.73,0-5.28,0-10.56,0-15.84,0-.55.23-.92.73-.71.81.33,2.15-.94,2.51.84.06.3.55,0,.78-.14a5.64,5.64,0,0,1,7.54.88,7.23,7.23,0,0,1,1.17,7.51,6.17,6.17,0,0,1-6.09,3.88C745.8,368.67,744.85,367.85,743.63,367.29Zm6.93-5.18a3.58,3.58,0,0,0-3.36-3.8,3.47,3.47,0,0,0-3.57,3.66,3.48,3.48,0,1,0,6.93.14Z" transform="translate(-523.13 -347.6)"/><path class="cls-1" d="M714.72,354.1a1.64,1.64,0,0,1-.14.22,8.05,8.05,0,0,1-1.86,1.79c-.88.43-1.25-.75-1.9-1.12a5.9,5.9,0,0,0-8.43,8,6.05,6.05,0,0,0,6.21,2.48,5.74,5.74,0,0,0,3.06-1.59c.66-.8,1.1-.61,1.68.06a18.93,18.93,0,0,0,1.47,1.36,9.62,9.62,0,0,1-13.71,1.11,9,9,0,0,1-.36-12.83C704.56,349.82,710.37,349.63,714.72,354.1Z" transform="translate(-523.13 -347.6)"/><path class="cls-1" d="M792.39,362.09c0,1.68-.06,3.36,0,5,0,.95-.18,1.54-1.22,1.25-.69-.19-1.94.8-2-.88,0-.25-.53,0-.68.13a5.55,5.55,0,0,1-7.43-.69,7,7,0,0,1-1.37-7.72,5.81,5.81,0,0,1,8.72-2.78c.27.18.58.62.91-.27.4-1.07,1.66-.29,2.52-.43s.55.61.56,1C792.4,358.53,792.39,360.31,792.39,362.09Zm-3.18,0a3.46,3.46,0,0,0-3.43-3.79,3.76,3.76,0,1,0,3.43,3.79Z" transform="translate(-523.13 -347.6)"/><path class="cls-1" d="M829.31,362.06a6.66,6.66,0,0,1-6.6,6.67A6.78,6.78,0,0,1,816.3,362a6.51,6.51,0,1,1,13,.07Zm-3.17-.05c0-2.29-1.31-3.72-3.36-3.7s-3.29,1.61-3.27,3.79a3.43,3.43,0,0,0,3.36,3.71C824.78,365.79,826.15,364.2,826.14,362Z" transform="translate(-523.13 -347.6)"/><path class="cls-1" d="M769,362.11a6.54,6.54,0,0,1-6.65,6.58,6.64,6.64,0,0,1,.24-13.27A6.63,6.63,0,0,1,769,362.11Zm-3.17-.08c0-2.3-1.3-3.74-3.35-3.72s-3.3,1.59-3.29,3.78a3.43,3.43,0,0,0,3.35,3.72C764.49,365.8,765.86,364.22,765.85,362Z" transform="translate(-523.13 -347.6)"/><path class="cls-1" d="M730.08,362a6.55,6.55,0,0,1-6.57,6.67,6.45,6.45,0,0,1-6.42-6.66,6.53,6.53,0,0,1,6.49-6.61A6.63,6.63,0,0,1,730.08,362Zm-3.18,0c0-2.29-1.32-3.72-3.37-3.69s-3.28,1.63-3.26,3.81a3.43,3.43,0,0,0,3.37,3.69C725.55,365.78,726.92,364.18,726.9,362Z" transform="translate(-523.13 -347.6)"/><path class="cls-1" d="M831.91,362c0-1.73.06-3.47,0-5.19,0-.94.31-1.29,1.13-1.06s2.08-.82,2.15,1a3.76,3.76,0,0,0,1-.41,4.83,4.83,0,0,1,5.54,0,3.76,3.76,0,0,1,1.77,3.33c.06,2.55,0,5.1,0,7.64,0,.92-.2,1.24-1.18,1.21-2-.05-2,0-2-2.08V361.6c0-2.27-.66-3.24-2.22-3.29s-2.9,1.39-3,3.34-.05,3.75,0,5.62c0,.83-.12,1.18-1.08,1.16-2.11,0-2.11,0-2.11-2.12Z" transform="translate(-523.13 -347.6)"/><path class="cls-1" d="M807.64,358.21l-1.19.87a1.72,1.72,0,0,1-2.21,0,3.77,3.77,0,0,0-5.3.63,3.83,3.83,0,0,0,.69,5.43,3.87,3.87,0,0,0,4.49.05c1.35-1.09,2-.24,2.93.43a6.82,6.82,0,0,1,.59.61,7.66,7.66,0,0,1-10.65.6,6.63,6.63,0,0,1,.07-9.58A7.26,7.26,0,0,1,807.64,358.21Z" transform="translate(-523.13 -347.6)"/><path class="cls-1" d="M774.45,357.28c.87-1.23,1.61-2,2.87-1.86.67.06,1.17.16.7,1-.25.49-.32,1.07-.54,1.58-.05.12,0,.39-.37.43-1.9.19-2.28.66-2.31,2.81s-.06,4,0,6c0,.9-.24,1.21-1.12,1.1a5.57,5.57,0,0,0-1.29,0c-.67.07-.8-.25-.79-.84q0-5.54,0-11.07c0-.65.25-.91.84-.78C773.26,355.91,774.79,355,774.45,357.28Z" transform="translate(-523.13 -347.6)"/><path class="cls-1" d="M735.51,357.28c.86-1.23,1.6-2,2.86-1.86.67.06,1.18.16.71,1-.26.49-.32,1.07-.54,1.58,0,.12,0,.39-.38.43-1.89.19-2.27.66-2.31,2.81s-.05,4,0,6c0,.9-.25,1.21-1.13,1.1a5.56,5.56,0,0,0-1.29,0c-.66.07-.79-.25-.79-.84,0-3.69,0-7.38,0-11.07,0-.65.25-.91.84-.78C734.32,355.91,735.85,355,735.51,357.28Z" transform="translate(-523.13 -347.6)"/><path class="cls-1" d="M813.74,362.09c0,1.72-.06,3.45,0,5.17,0,1-.31,1.28-1.21,1.15a4.27,4.27,0,0,0-1,0c-.71.08-1-.12-1-.92.05-3.64,0-7.28,0-10.92,0-.72.25-.94.91-.86a3.53,3.53,0,0,0,.86,0c1.06-.16,1.53.15,1.45,1.35C813.65,358.73,813.74,360.41,813.74,362.09Z" transform="translate(-523.13 -347.6)"/><path class="cls-2" d="M690.64,370.14A2.68,2.68,0,0,1,688,367.6a2.25,2.25,0,0,1,2.55-2.37,2.69,2.69,0,0,1,2.63,2.45A2.33,2.33,0,0,1,690.64,370.14Z" transform="translate(-523.13 -347.6)"/><path class="cls-1" d="M827.14,349.37c-1.59,1.59-2.94,3-4.35,4.33-.63.6-1.47.15-2.4.34.91-1.53,1.75-2.9,2.53-4.3a.63.63,0,0,1,.67-.37Z" transform="translate(-523.13 -347.6)"/><path class="cls-1" d="M814,352.6a1.93,1.93,0,0,1-1.92,2,2.18,2.18,0,0,1-1.83-2.13,1.8,1.8,0,0,1,2-1.91A2,2,0,0,1,814,352.6Z" transform="translate(-523.13 -347.6)"/></svg>