<svg id="Capa_1" data-name="Capa 1" xmlns="http://www.w3.org/2000/svg" viewBox="0 0 116.41 116.41"><defs><style>.cls-1{fill:#244b9a;}</style></defs><title>pipet</title><path class="cls-1" d="M298.29,388.61a58.2,58.2,0,1,1,41.15-17A57.83,57.83,0,0,1,298.29,388.61Zm0-115.06a56.86,56.86,0,1,0,56.85,56.86A56.93,56.93,0,0,0,298.29,273.55Z" transform="translate(-240.08 -272.21)"/><path class="cls-1" d="M294.41,376.9c-.73-.17-1.47-.33-2.19-.51a17.48,17.48,0,0,1-11.62-24.73A16,16,0,0,1,285,346a1.89,1.89,0,0,0,.77-1.69c0-18.73.06-37.46-.05-56.19,0-5.12,2.9-8,7.5-8.7a16.35,16.35,0,0,1,9.1.74,7,7,0,0,1,4.42,6,17.33,17.33,0,0,1,.06,1.91q0,28.18,0,56.38a1.85,1.85,0,0,0,.69,1.54c5.64,5,7.66,11.21,5.54,18.4-2.06,6.95-7,11-14.12,12.34a5.75,5.75,0,0,0-.71.2Zm10.84-60.6q0-14.37,0-28.72c0-3.68-1.66-5.83-5.3-6.42a21.66,21.66,0,0,0-6.07-.16c-3.93.46-6.58,2.49-6.54,7.4.13,18.48,0,37,.08,55.43,0,1.61-.07,3-1.71,3.8-.09,0-.14.13-.21.19a15.85,15.85,0,1,0,20.64-.81,2,2,0,0,1-.91-1.81C305.26,335.56,305.25,325.93,305.25,316.3Z" transform="translate(-240.08 -272.21)"/><path class="cls-1" d="M302,308.45v1.28q0,18.75,0,37.5a1.5,1.5,0,0,0,.84,1.5,12.5,12.5,0,1,1-19,11.85,12.15,12.15,0,0,1,6-11.91,1.4,1.4,0,0,0,.73-1.37q0-18.69,0-37.4c0-.72-.25-1.5.66-2a3.29,3.29,0,0,1,3.15-.43,10.25,10.25,0,0,1,1.72,1,4.47,4.47,0,0,0,5.18.25C301.51,308.65,301.69,308.59,302,308.45Zm-.5,46.31a3.16,3.16,0,0,0,0,6.31,3.16,3.16,0,1,0,0-6.31Z" transform="translate(-240.08 -272.21)"/><path class="cls-1" d="M297.18,287.3h4.39c.6,0,1.23.08,1.2.86s-.62.77-1.2.77h-8.86c-.62,0-1.22-.06-1.2-.85s.63-.78,1.19-.78Z" transform="translate(-240.08 -272.21)"/><path class="cls-1" d="M297.08,295.42H292.6c-.55,0-1.06-.11-1.09-.78s.53-.85,1.11-.85h9.05c.55,0,1.09.13,1.11.78s-.52.85-1.12.85Z" transform="translate(-240.08 -272.21)"/><path class="cls-1" d="M297.12,301.91c-1.49,0-3,0-4.48,0-.6,0-1.13-.12-1.13-.84s.53-.79,1.07-.79h9.15c.56,0,1.07.17,1,.83s-.52.8-1.09.8C300.17,301.9,298.64,301.91,297.12,301.91Z" transform="translate(-240.08 -272.21)"/><path class="cls-1" d="M299.55,292.17a15.74,15.74,0,0,1-2.28,0c-.34-.06-.62-.49-.93-.74.29-.28.56-.79.86-.8,1.58-.08,3.18-.08,4.76,0,.29,0,.56.48.83.74-.28.28-.54.75-.86.8a15.74,15.74,0,0,1-2.38,0Z" transform="translate(-240.08 -272.21)"/><path class="cls-1" d="M299.53,298.66a14.43,14.43,0,0,1-2.28,0c-.34-.05-.61-.49-.91-.76.29-.27.57-.76.88-.78a45.47,45.47,0,0,1,4.67,0c.31,0,.6.49.9.76-.32.27-.62.72-1,.78A13.32,13.32,0,0,1,299.53,298.66Z" transform="translate(-240.08 -272.21)"/><path class="cls-1" d="M299.58,305.14a14.43,14.43,0,0,1-2.28,0c-.36-.06-.64-.53-1-.81.31-.26.6-.73.92-.75a43.73,43.73,0,0,1,4.58,0c.33,0,.63.53,1,.82-.34.26-.65.68-1,.74A12.3,12.3,0,0,1,299.58,305.14Z" transform="translate(-240.08 -272.21)"/></svg>