<svg id="Capa_1" data-name="Capa 1" xmlns="http://www.w3.org/2000/svg" viewBox="0 0 26.86 37.59"><defs><style>.cls-1{fill:#244b9a;}</style></defs><title>ubicacion</title><path class="cls-1" d="M298.08,338.49c-.69-1.29-1.37-2.47-2-3.69-1.38-2.82-2.76-5.65-4.07-8.51a25.18,25.18,0,0,1-1.85-5.36,7.27,7.27,0,0,1,.91-5.26,7.76,7.76,0,0,1,5.38-3.87,7.66,7.66,0,0,1,6.45,1.47,7.55,7.55,0,0,1,3.15,6.66,13,13,0,0,1-.84,3.5,81,81,0,0,1-4.57,10.15C299.85,335.2,299,336.79,298.08,338.49Zm2.68-18.81a2.69,2.69,0,1,0-2.68,2.68A2.69,2.69,0,0,0,300.76,319.68Z" transform="translate(-284.66 -311.62)"/><path class="cls-1" d="M291.71,329.3c-.33.22-.67.43-1,.66a7.54,7.54,0,0,0-3.21,4.46,6.08,6.08,0,0,0,1.18,5.24,10.35,10.35,0,0,0,6.32,3.82,13.28,13.28,0,0,0,9.36-1.19,8.19,8.19,0,0,0,4-4.21,6.06,6.06,0,0,0-.58-5.73,8.75,8.75,0,0,0-3-2.82l-.34-.21,0-.12a.81.81,0,0,1,.27,0,11.18,11.18,0,0,1,6.23,6.35,8.55,8.55,0,0,1-1.28,8.25,12.58,12.58,0,0,1-6.92,4.7,16.05,16.05,0,0,1-10.09-.22,12.87,12.87,0,0,1-5.68-3.77,9.06,9.06,0,0,1-2.33-6.51,9.15,9.15,0,0,1,2.34-5.58,12.67,12.67,0,0,1,4.34-3.19,1.46,1.46,0,0,1,.3-.07Z" transform="translate(-284.66 -311.62)"/></svg>